<svg xmlns="http://www.w3.org/2000/svg" width="50" height="50" fill="none" viewBox="0 0 50 50">
  <path fill="#000" d="M39.51 37.044h-.931v.93h.93v-.93Zm4.686-16.831h-.93v.93h.93v-.93Zm-10.089.649h-.93v.93h.93v-.93ZM44.661 41.44h-.93v.93h.93v-.93Zm-8.481.884h-.93v.93h.93v-.93Z"/>
  <path fill="#000" d="M42.955 10.775a1.357 1.357 0 0 1-.71-1.193v-1.4c.532-.09.938-.553.938-1.11V5.46c0-.622-.505-1.127-1.127-1.127h-7.775c-.622 0-1.127.505-1.127 1.127v1.61c0 .557.406 1.02.938 1.11v1.401a1.356 1.356 0 0 1-.71 1.193 9.093 9.093 0 0 0-4.755 7.996v.953H8.185a2.762 2.762 0 0 0-2.75 2.468l-.946 8.725.97.105.947-8.725A1.787 1.787 0 0 1 8.185 20.7h21.378c.916 0 1.68.686 1.779 1.596l.945 8.717.971-.105-.54-4.972h8.983v8.12h-5.87v.977h6.846V22.729H32.371l-.058-.537a2.761 2.761 0 0 0-2.71-2.467v-.954c0-.388.028-.771.082-1.148.979.11 1.536.505 2.165.952.767.546 1.636 1.165 3.3 1.165 1.666 0 2.535-.619 3.302-1.165.741-.528 1.381-.983 2.734-.983s1.993.455 2.735.983c.688.49 1.46 1.037 2.812 1.145v23.07a1.844 1.844 0 0 1-1.841 1.842H33.015v.977h11.877a2.822 2.822 0 0 0 2.818-2.82V18.772a9.093 9.093 0 0 0-4.755-7.997ZM41.7 23.705v1.255h-9.088l-.136-1.255H41.7ZM34.13 5.461a.15.15 0 0 1 .15-.15h7.776a.15.15 0 0 1 .15.15v1.61a.15.15 0 0 1-.15.15H34.28a.15.15 0 0 1-.15-.15v-1.61ZM44.487 17.78c-.767-.546-1.636-1.165-3.3-1.165-1.666 0-2.535.619-3.302 1.165-.741.527-1.381.983-2.734.983s-1.994-.456-2.735-.983c-.64-.456-1.351-.96-2.535-1.116a8.116 8.116 0 0 1 3.968-5.03 2.34 2.34 0 0 0 1.085-1.274h4.573v-.976h-4.439V8.199h6.2v1.383c0 .856.468 1.642 1.22 2.051a8.117 8.117 0 0 1 4.245 7.108c-1.03-.097-1.6-.502-2.246-.961Zm-34.114-3.89h-.976v1.47h.976v-1.47Z"/>
  <path fill="#000" d="M10.373 16.402h-.976v1.47h.976v-1.47Zm-1.009-1.009h-1.47v.976h1.47v-.976Zm2.512 0h-1.47v.976h1.47v-.976Zm14.918-8.741h-.976v1.47h.976v-1.47Zm0 2.512h-.976v1.47h.976v-1.47Zm-1.009-1.01h-1.47v.977h1.47v-.977Zm2.512 0h-1.47v.977h1.47v-.977Zm5.581 30.963a1.61 1.61 0 0 0 1.589-1.608c0-.88-.71-1.597-1.589-1.609v-.008c0-1.269-.505-2.688-1.352-3.796-.947-1.239-2.158-1.921-3.41-1.921-.357 0-.71.057-1.053.164-.906-1.853-2.474-3.027-4.096-3.027-1.613 0-3.18 1.168-4.087 3.011a3.521 3.521 0 0 0-1.002-.148c-.362 0-.721.059-1.071.17-.905-1.857-2.474-3.033-4.098-3.033-1.61 0-3.174 1.164-4.082 3a3.514 3.514 0 0 0-.966-.137c-1.252 0-2.464.682-3.41 1.92-.847 1.109-1.353 2.528-1.353 3.797v.007a1.612 1.612 0 0 0-1.608 1.61c0 .887.721 1.608 1.608 1.61v1.901a4.637 4.637 0 0 0 4.632 4.632 4.64 4.64 0 0 0 4.272-2.84h1.813a4.639 4.639 0 0 0 4.276 2.854 4.64 4.64 0 0 0 4.277-2.854h1.806a4.645 4.645 0 0 0 3.616 2.793v.003h.02a4.638 4.638 0 0 0 5.268-4.588v-1.903Zm-4.763-7.965c2.04 0 3.787 2.606 3.787 4.74v.008h-7.573v-.008c0-2.134 1.747-4.74 3.786-4.74Zm-5.148-2.863c1.388 0 2.564 1.177 3.205 2.456a5.39 5.39 0 0 0-1.467 1.35c-.847 1.109-1.353 2.528-1.353 3.797v.008h-.71v-.008c0-1.269-.506-2.688-1.353-3.796a5.353 5.353 0 0 0-1.513-1.378c.645-1.266 1.816-2.429 3.191-2.429Zm-5.089 2.863c2.04 0 3.787 2.606 3.787 4.74v.008h-7.573v-.008c0-2.134 1.747-4.74 3.786-4.74Zm-5.17-2.863c1.393 0 2.57 1.182 3.21 2.466a5.4 5.4 0 0 0-1.45 1.34c-.847 1.109-1.352 2.528-1.352 3.797v.008h-.692v-.008c0-1.269-.505-2.688-1.352-3.796-.461-.603-.984-1.072-1.544-1.397.645-1.257 1.812-2.41 3.18-2.41Zm-5.047 2.863c2.04 0 3.787 2.606 3.787 4.74v.008H4.875v-.008c0-2.134 1.747-4.74 3.786-4.74ZM4.875 41.02v-1.9h.612v1.885c0 1.11.313 2.13.833 2.925a3.651 3.651 0 0 1-1.445-2.909Zm8.214.815a4.65 4.65 0 0 0 .074-.815v-.242c0-.3.244-.545.551-.545.3 0 .545.244.545.545v.256c0 .273.025.54.071.801h-1.24Zm10.364 0c.046-.26.07-.528.07-.801v-.256a.546.546 0 0 1 1.09 0v.242c0 .278.027.55.074.815h-1.234Zm7.81-.831c0 1.967-1.158 3.571-2.598 3.625a3.661 3.661 0 0 1-3.075-3.609v-.242a1.523 1.523 0 0 0-3.043 0v.256a3.66 3.66 0 0 1-3.655 3.656 3.66 3.66 0 0 1-3.656-3.656v-.256a1.525 1.525 0 0 0-3.05 0v.242a3.661 3.661 0 0 1-3.083 3.61c-1.458-.024-2.64-1.64-2.64-3.626v-1.885h24.801v1.885Zm1.639.016c0 1.23-.611 2.319-1.544 2.982.55-.806.882-1.854.882-2.998v-1.885h.662v1.901ZM3.9 38.142a.634.634 0 0 1 0-1.266h29.957a.634.634 0 0 1 0 1.266H3.9Zm6.04-15.385a1.28 1.28 0 0 0-1.279-1.279 1.28 1.28 0 0 0-1.278 1.279 1.28 1.28 0 0 0 1.278 1.279 1.28 1.28 0 0 0 1.279-1.279Zm-1.58 0a.302.302 0 1 1 .604 0 .302.302 0 0 1-.605 0Zm20.755 1.279a1.28 1.28 0 0 0 1.279-1.279 1.28 1.28 0 0 0-1.279-1.279 1.28 1.28 0 0 0-1.278 1.279 1.28 1.28 0 0 0 1.278 1.279Zm0-1.581a.303.303 0 1 1 0 .605.303.303 0 0 1 0-.605Zm-2.445-.134h-1.91v.976h1.909v-.976Zm-3.049 0H11.176v.976H23.62v-.976Zm21.726 14.187h-.976v1.53h.976v-1.53Zm0-13.82h-.976v12.425h.976V22.688Z"/>
</svg>
