<svg xmlns="http://www.w3.org/2000/svg" width="50" height="50" fill="none" viewBox="0 0 50 50">
  <g clip-path="url(#a)">
    <path fill="#1A1A1A" d="M13.16 40.442H2.338c-.582 0-.776 0-.776-1.053v-2.506a.781.781 0 1 0-1.563 0v2.506a2.231 2.231 0 0 0 2.339 2.615h10.82a.781.781 0 1 0 0-1.562ZM.78 34.424a.781.781 0 0 0 .781-.781V7.818l23.646.04v13.026a.78.78 0 1 0 1.563 0V7.858a1.593 1.593 0 0 0-1.578-1.608H2.225l3.573-3.02h22.708a1.25 1.25 0 0 1 1.25 1.25v15.853a.781.781 0 0 0 1.563 0V4.48a2.813 2.813 0 0 0-2.813-2.812H5.512a.78.78 0 0 0-.504.184l-4.64 3.93a1.15 1.15 0 0 0-.252.393.767.767 0 0 0-.116.388v27.083a.781.781 0 0 0 .781.778Z"/>
    <path fill="#1A1A1A" d="M28.273 20.605a.781.781 0 0 0 .781-.781V6.292a2.328 2.328 0 0 0-2.32-2.324l-19.527-.04a.781.781 0 0 0 0 1.562l19.528.04a.763.763 0 0 1 .76.762v13.532a.781.781 0 0 0 .778.781Zm10.76 14.873a.781.781 0 0 0-.78.781v6.496a.938.938 0 0 1-.105.439c-.44.838-2.523 3.577-10.856 3.577-8.334 0-10.417-2.736-10.862-3.575a.939.939 0 0 1-.104-.438v-6.167a.781.781 0 1 0-1.563 0v6.164c-.002.405.094.805.28 1.166.702 1.326 3.29 4.412 12.249 4.412 8.958 0 11.545-3.083 12.242-4.408a2.5 2.5 0 0 0 .282-1.167V36.26a.782.782 0 0 0-.783-.78Z"/>
    <path fill="#1A1A1A" d="m49.466 28.79-20.67-6.903a.761.761 0 0 0-.486 0L5.028 29.35a.782.782 0 0 0-.011 1.482l21.77 7.359a.79.79 0 0 0 .513-.005l15.98-5.706v3.75a2.627 2.627 0 0 0-1.867 2.506v1.575a2.633 2.633 0 1 0 5.266 0v-1.577a2.63 2.63 0 0 0-1.836-2.5v-4.312l4.636-1.655a.781.781 0 0 0-.015-1.477h.002Zm-4.354 11.523a1.07 1.07 0 1 1-2.141 0v-1.578a1.07 1.07 0 0 1 1.828-.757 1.072 1.072 0 0 1 .313.757v1.578Zm-1.162-9.73-16.576-1.788a.781.781 0 1 0-.167 1.553l13.364 1.442-13.542 4.837-19.264-6.512 20.779-6.667 18.282 6.107-2.876 1.028Z"/>
  </g>
  <defs>
    <clipPath id="a">
      <path fill="#fff" d="M0 0h50v50H0z"/>
    </clipPath>
  </defs>
</svg>
