<svg xmlns="http://www.w3.org/2000/svg" width="50" height="50" fill="none" viewBox="0 0 50 50">
  <g clip-path="url(#a)">
    <path fill="#000" d="M21.094 7.813a.781.781 0 0 0-.782.78v2.345h-.78a.781.781 0 0 0-.782.78v2.345h-3.125v-3.897a.78.78 0 1 0-1.563 0v3.896h-2.398c-5.594 0-10.05 4.929-10.05 10.938 0 3.972 1.953 7.462 4.89 9.378H.79v-.003a.79.79 0 0 0-.79.79v3.11a.79.79 0 0 0 .621.769.88.88 0 0 0 .17.022h3.133a3.876 3.876 0 0 0-.798 2.34 3.918 3.918 0 0 0 3.906 3.907 3.918 3.918 0 0 0 3.907-3.907c0-.88-.305-1.686-.8-2.34h1.6a3.868 3.868 0 0 0-.8 2.34 3.918 3.918 0 0 0 3.906 3.907 3.918 3.918 0 0 0 3.906-3.907c0-.88-.305-1.686-.8-2.34h15.662a3.868 3.868 0 0 0-.8 2.34 3.918 3.918 0 0 0 3.907 3.907 3.914 3.914 0 0 0 3.9-3.86 3.917 3.917 0 0 0 3.903 3.86 3.918 3.918 0 0 0 3.906-3.907c0-.88-.305-1.686-.8-2.34h1.581a.782.782 0 0 0 .078 0 .804.804 0 0 0 .082-.016.79.79 0 0 0 .631-.775v-3.11l-.013.016a.79.79 0 0 0-.778-.803h-5.712c2.936-1.916 4.889-5.406 4.889-9.378 0-5.745-4.077-10.49-9.324-10.898V12.5H37.5v1.563h-3.125V12.5h-1.563v1.563h-4.687v-2.344a.781.781 0 0 0-.781-.781h-.782V8.594a.781.781 0 0 0-.78-.781h-4.688Zm.781 1.562H25v1.563h-3.125V9.374ZM20.312 12.5h6.25v1.563h-6.25V12.5Zm-8.648 3.125h3.113a.77.77 0 0 0 .115 0h17.92v18.75H11.665c-4.675 0-8.487-4.131-8.487-9.375s3.812-9.375 8.487-9.375Zm22.711 0H37.5v1.563h-3.125v-1.563Zm4.688.04c4.337.402 7.76 4.366 7.76 9.335 0 4.969-3.423 8.933-7.76 9.336V15.664Zm-4.688 3.085H37.5v1.563h-3.125V18.75Zm0 3.125H37.5v1.563h-3.125v-1.563Zm0 3.125H37.5v1.563h-3.125V25Zm0 3.125H37.5v1.563h-3.125v-1.563Zm0 3.125H37.5v3.125h-3.125V31.25ZM1.581 35.956H48.42v1.528H1.58v-1.528ZM7 39.066h.063a2.33 2.33 0 0 1 2.312 2.34 2.333 2.333 0 0 1-2.344 2.344 2.333 2.333 0 0 1-2.343-2.344A2.33 2.33 0 0 1 7 39.066Zm7.813 0h.062a2.33 2.33 0 0 1 2.313 2.34 2.333 2.333 0 0 1-2.344 2.344 2.333 2.333 0 0 1-2.344-2.344 2.33 2.33 0 0 1 2.313-2.34Zm21.874 0h.063a2.33 2.33 0 0 1 2.313 2.34 2.333 2.333 0 0 1-2.344 2.344 2.333 2.333 0 0 1-2.344-2.344 2.33 2.33 0 0 1 2.313-2.34Zm3.138 0h1.59a3.869 3.869 0 0 0-.796 2.295 3.868 3.868 0 0 0-.794-2.295Zm4.667 0h.061a2.328 2.328 0 0 1 2.313 2.34 2.333 2.333 0 0 1-2.344 2.344 2.333 2.333 0 0 1-2.344-2.344 2.332 2.332 0 0 1 2.314-2.34Z"/>
    <path fill="#000" d="M7.813 41.406a.78.78 0 1 1-1.562 0 .78.78 0 0 1 1.561 0Zm29.687 0a.781.781 0 1 1-1.562 0 .781.781 0 0 1 1.562 0Zm-21.875 0a.781.781 0 1 1-1.562 0 .781.781 0 0 1 1.562 0Zm29.678 0a.781.781 0 1 1-1.562 0 .781.781 0 0 1 1.562 0Z"/>
  </g>
  <defs>
    <clipPath id="a">
      <path fill="#fff" d="M0 0h50v50H0z"/>
    </clipPath>
  </defs>
</svg>
