<svg xmlns="http://www.w3.org/2000/svg" width="50" height="50" fill="none" viewBox="0 0 50 50">
  <g clip-path="url(#a)">
    <path fill="#000" d="M21.146 34.688c0-1.355-.521-2.605-1.459-3.646l-6.458-6.459c-.312-.312-.833-.416-1.25-.312-.416.104-.833.52-.937 1.041-.209 1.042-.73 3.334-.209 5.209l.104.208 2.292 2.292-.729.104c-1.042 0-1.98-.417-2.708-1.146l-2.709-2.708v-6.354c0-1.875-1.146-3.542-2.812-4.271-.833-.313-1.771-.521-2.604-.521H.625v12.708c0 1.042.417 1.98 1.146 2.709l7.5 7.5v.312H6.458v7.917h17.084v-7.917h-2.396v-6.666Zm-18.021-2.5a1.725 1.725 0 0 1-.52-1.25V20.416c.208.104.52.104.728.208.938.417 1.563 1.354 1.563 2.292v7.291l3.333 3.334a6.078 6.078 0 0 0 4.271 1.77l2.604-.416c.417-.104.834-.417.938-.834.104-.416 0-.937-.313-1.25l-3.125-3.124c-.208-.834-.104-1.771 0-2.605l5.417 5.417c.625.625.937 1.354.937 2.188v6.874h-7.812v-.312c0-.625-.209-1.146-.625-1.563l-7.396-7.5Zm18.23 11.458v3.75H8.541v-3.75h12.812ZM45.832 18.75c-1.666.73-2.812 2.396-2.812 4.27v6.355l-2.709 2.708c-.729.73-1.666 1.146-2.708 1.146l-.729-.104 2.292-2.292.104-.208c.52-1.98.104-4.167-.209-5.313-.104-.416-.416-.833-.937-.937-.417-.104-.938 0-1.25.313l-6.458 6.458c-.938.937-1.459 2.291-1.459 3.646v6.875h-2.395v7.916h17.083v-7.916h-2.709v-.417l7.5-7.5c.73-.73 1.146-1.667 1.146-2.708V18.229h-1.041c-1.042 0-1.875.209-2.709.521Zm-4.375 24.896v3.75H28.646v-3.75h12.812Zm5.938-12.709c0 .521-.209.938-.521 1.25l-7.5 7.5c-.417.417-.625.938-.625 1.563v.313h-7.813v-6.876c0-.833.313-1.562.938-2.187l5.417-5.417c.104.834.208 1.771 0 2.605l-3.125 3.125c-.313.312-.417.833-.313 1.25.104.416.521.729.938.833l2.5.416h.208a5.895 5.895 0 0 0 4.27-1.77l3.334-3.334v-7.187c0-1.042.625-1.98 1.563-2.292.208-.104.52-.208.729-.208v10.416ZM25.312 7.396c-3.75-.208-6.875 2.708-7.083 6.458A6.649 6.649 0 0 0 20 18.75c1.25 1.354 2.917 2.083 4.688 2.188H25c3.542 0 6.563-2.813 6.77-6.459.21-3.75-2.707-6.875-6.457-7.083Zm-.52 11.458c-1.25-.104-2.396-.625-3.23-1.562-.833-.938-1.25-2.084-1.25-3.334.105-2.5 2.188-4.479 4.688-4.479h.208c2.605.104 4.584 2.292 4.48 4.896-.105 2.604-2.292 4.583-4.896 4.48Z"/>
    <path fill="#000" d="M38.646 16.354v-4.583l-2.709-.625c-.208-.938-.624-1.771-1.145-2.708l1.458-2.396-3.333-3.23-2.396 1.459c-.834-.521-1.771-.833-2.709-1.042L27.188.521h-4.583l-.625 2.708c-.937.209-1.77.625-2.708 1.146l-2.396-1.458L13.75 6.25l1.458 2.396c-.52.833-.833 1.77-1.146 2.708l-2.708.625v4.584l2.709.625c.208.937.624 1.77 1.145 2.708l-1.458 2.396 3.333 3.229 2.396-1.459c.834.521 1.771.834 2.709 1.042l.625 2.709h4.583l.625-2.709c.937-.208 1.77-.625 2.708-1.146l2.396 1.459 3.23-3.334-1.46-2.395c.522-.834.834-1.771 1.042-2.709l2.709-.625Zm-4.48-1.041-.103.624c-.209 1.146-.626 2.188-1.25 3.23l-.313.52 1.25 2.084-.938.937-2.083-1.25-.52.417c-.938.625-2.084 1.146-3.126 1.354l-.625.104-.52 2.396h-1.355l-.625-2.396-.625-.104c-1.145-.208-2.187-.625-3.229-1.25l-.52-.312-2.084 1.25-1.042-1.042 1.25-2.083-.416-.521c-.625-.938-1.146-2.084-1.355-3.125l-.104-.625L13.437 15v-1.354l2.396-.625.104-.625c.209-1.146.626-2.188 1.25-3.23l.313-.52-1.25-2.083.938-.938 2.083 1.25.52-.417c.938-.625 2.084-1.145 3.126-1.354L23.542 5l.52-2.396h1.355L26.042 5l.625.104c1.145.209 2.187.625 3.229 1.25l.52.313 2.084-1.25.938.937-1.25 2.084.416.52c.625.938 1.146 2.084 1.354 3.125l.105.625 2.395.521v1.354l-2.291.73Z"/>
  </g>
  <defs>
    <clipPath id="a">
      <path fill="#fff" d="M0 0h50v50H0z"/>
    </clipPath>
  </defs>
</svg>
