<svg width="50" height="50" viewBox="0 0 50 50" fill="none" xmlns="http://www.w3.org/2000/svg">
  <circle cx="25" cy="25" r="25" fill="#FF682D" />
  <path d="M22.7769 17.366C22.5415 17.6004 22.4092 17.9183 22.4092 18.2497C22.4092 18.5812 22.5415 18.8991 22.7769 19.1335L28.993 25.321L22.7769 31.5085C22.5481 31.7442 22.4216 32.06 22.4244 32.3877C22.4273 32.7155 22.5594 33.029 22.7922 33.2608C23.025 33.4925 23.34 33.624 23.6692 33.6268C23.9985 33.6297 24.3157 33.5037 24.5526 33.276L31.6564 26.2047C31.8919 25.9703 32.0241 25.6524 32.0241 25.321C32.0241 24.9895 31.8919 24.6716 31.6564 24.4372L24.5526 17.366C24.3171 17.1316 23.9977 17 23.6647 17C23.3317 17 23.0124 17.1316 22.7769 17.366Z" fill="white" />
</svg>