<svg xmlns="http://www.w3.org/2000/svg" width="24" height="24" fill="none" viewBox="0 0 24 24">
  <g clip-path="url(#a)">
    <path stroke="#FF682D" stroke-linecap="round" stroke-linejoin="round" stroke-width="1.5" d="M5.143 12V7.491A6.737 6.737 0 0 1 12 .857a6.737 6.737 0 0 1 6.857 6.634V12m-3.428 9a3.428 3.428 0 0 0 3.428-3.429v-3.857M15.43 21a2.143 2.143 0 0 1-2.143 2.143h-2.572a2.143 2.143 0 1 1 0-4.286h2.572A2.143 2.143 0 0 1 15.429 21ZM2.57 9.429h1.715a.857.857 0 0 1 .857.857v5.143a.857.857 0 0 1-.857.857H2.57A1.714 1.714 0 0 1 .857 14.57v-3.428a1.714 1.714 0 0 1 1.714-1.714Zm18.857 6.857h-1.714a.857.857 0 0 1-.857-.857v-5.143a.857.857 0 0 1 .857-.857h1.715a1.714 1.714 0 0 1 1.714 1.714v3.428a1.714 1.714 0 0 1-1.715 1.715Z"/>
  </g>
  <defs>
    <clipPath id="a">
      <path fill="#fff" d="M0 0h24v24H0z"/>
    </clipPath>
  </defs>
</svg>
