<svg xmlns="http://www.w3.org/2000/svg" width="50" height="33" fill="none" viewBox="0 0 50 33">
  <path fill="#000" fill-rule="evenodd" d="M.792 21.865a.782.782 0 1 0 0 1.562h3.124a.78.78 0 1 0 0-1.562H.792Z" clip-rule="evenodd"/>
  <path fill="#000" d="M13.298 24.988a2.355 2.355 0 0 0-2.342 2.343 2.355 2.355 0 0 0 2.342 2.343 2.355 2.355 0 0 0 2.343-2.343 2.355 2.355 0 0 0-2.343-2.343Zm0 1.562c.44 0 .781.34.781.78a.77.77 0 0 1-.78.782.77.77 0 0 1-.782-.781c0-.44.34-.781.781-.781Zm25.77-1.562a2.355 2.355 0 0 0-2.343 2.343 2.355 2.355 0 0 0 2.343 2.343 2.355 2.355 0 0 0 2.342-2.343 2.355 2.355 0 0 0-2.342-2.343Zm0 1.562c.44 0 .78.34.78.78a.77.77 0 0 1-.78.782.77.77 0 0 1-.781-.781c0-.44.34-.781.78-.781Zm7.028-9.37a.781.781 0 0 0-.781.78v3.124a.781.781 0 0 0 .78.78h3.124a.78.78 0 0 0 .78-.78V17.96a.78.78 0 0 0-.78-.78h-3.123Zm.78 1.561h1.562v1.562h-1.562V18.74Z"/>
  <path fill="#000" fill-rule="evenodd" d="M35.151 16.399a.78.78 0 0 0-.302 1.505.782.782 0 0 0 .302.056h1.583a.782.782 0 1 0 0-1.561h-1.583ZM4.697 3.124a.78.78 0 0 0-.77.793v12.482a.78.78 0 1 0 1.563 0V3.917a.78.78 0 0 0-.793-.793Zm4.685 0a.78.78 0 0 0-.769.793v12.482a.78.78 0 1 0 1.562 0V3.917a.783.783 0 0 0-.793-.793Zm4.685 0a.78.78 0 0 0-.768.793v12.482a.782.782 0 1 0 1.561 0V3.917a.781.781 0 0 0-.793-.793Zm4.686 0a.78.78 0 0 0-.77.793v12.482a.782.782 0 1 0 1.563 0V3.917a.78.78 0 0 0-.793-.793Zm4.685 0a.781.781 0 0 0-.769.793v12.482a.78.78 0 0 0 1.506.302.78.78 0 0 0 .056-.302V3.917a.78.78 0 0 0-.793-.793Zm4.685 0a.781.781 0 0 0-.768.793v12.482a.78.78 0 0 0 1.505.302.78.78 0 0 0 .056-.302V3.917a.78.78 0 0 0-.793-.793Z" clip-rule="evenodd"/>
  <path fill="#000" d="M.804 0a.78.78 0 0 0-.78.78v24.99a.781.781 0 0 0 .78.78h7.903a.78.78 0 1 0 0-1.562H1.585V1.562h29.674v23.426H17.88a.782.782 0 1 0 0 1.562h14.159a.78.78 0 0 0 .781-.78V.78a.78.78 0 0 0-.78-.78H.803Z"/>
  <path fill="#000" fill-rule="evenodd" d="M.813 18.741a.78.78 0 1 0 0 1.562h30.958a.782.782 0 1 0 0-1.562H.813Z" clip-rule="evenodd"/>
  <path fill="#000" d="M32.04 3.124a.782.782 0 1 0 0 1.561h8.59l7.857 8.98a.781.781 0 1 0 1.177-1.03L41.57 3.389a.782.782 0 0 0-.586-.265H32.04Z"/>
  <path fill="#000" d="M32.04 12.494a.78.78 0 0 0-.781.781v12.494a.78.78 0 0 0 .78.781h2.151a.782.782 0 1 0 0-1.562h-1.37V14.056h15.618v10.932h-4.615a.782.782 0 0 0-.56 1.337.78.78 0 0 0 .56.225h5.396a.78.78 0 0 0 .781-.78V13.274a.78.78 0 0 0-.78-.78H32.04Z"/>
  <path fill="#000" d="M13.298 21.865a5.478 5.478 0 0 0-5.466 5.466 5.478 5.478 0 0 0 5.466 5.466 5.478 5.478 0 0 0 5.466-5.466 5.478 5.478 0 0 0-5.466-5.466Zm0 1.562a3.893 3.893 0 0 1 3.905 3.904 3.893 3.893 0 0 1-3.905 3.904 3.893 3.893 0 0 1-3.904-3.904 3.893 3.893 0 0 1 3.904-3.904Zm25.77-1.562A5.478 5.478 0 0 0 33.6 27.33a5.478 5.478 0 0 0 5.467 5.466 5.478 5.478 0 0 0 5.466-5.466 5.478 5.478 0 0 0-5.466-5.466Zm0 1.562a3.893 3.893 0 0 1 3.904 3.904 3.893 3.893 0 0 1-3.904 3.904 3.893 3.893 0 0 1-3.905-3.904 3.893 3.893 0 0 1 3.905-3.904Z"/>
</svg>
