<svg xmlns="http://www.w3.org/2000/svg" width="24" height="24" fill="none" viewBox="0 0 24 24">
  <path fill="#FF682D" d="M5.11 1.804 4.054 2.86l1.571 1.57 1.054-1.054-1.57-1.57Zm13.781 0-1.571 1.57 1.055 1.055 1.57-1.57-1.054-1.055ZM12 2.272a6.874 6.874 0 0 0-.75.048h-.023c-3.042.35-5.463 2.807-5.883 5.835-.336 2.438.669 4.648 2.343 6.072A3.928 3.928 0 0 1 9 16.499V21h1.71c.261.448.737.75 1.29.75a1.49 1.49 0 0 0 1.29-.75H15v-3h.07v-.89c0-1.1.572-2.209 1.5-3.07 1.242-1.244 2.18-3.01 2.18-5.04 0-3.704-3.05-6.761-6.75-6.727Zm0 1.5c2.899-.04 5.25 2.333 5.25 5.228 0 1.57-.727 2.953-1.735 3.96l.024.024a5.845 5.845 0 0 0-1.83 3.516h-3.28c-.165-1.286-.716-2.53-1.758-3.422-1.325-1.125-2.115-2.82-1.851-4.734.327-2.363 2.245-4.263 4.594-4.523.193-.027.389-.043.585-.048H12ZM1.5 9v1.5h2.25V9H1.5Zm18.75 0v1.5h2.25V9h-2.25ZM5.625 15.07l-1.57 1.57 1.055 1.055 1.569-1.57-1.054-1.055Zm12.75 0-1.055 1.055 1.57 1.57 1.055-1.055-1.57-1.57ZM10.5 18h3v1.5h-3V18Z"/>
</svg>
