<svg width="10" height="8" viewBox="0 0 10 8" fill="none" xmlns="http://www.w3.org/2000/svg">
  <path fill-rule="evenodd" clip-rule="evenodd" d="M5.00006 5.58009C4.85175 5.58013 0.956859 1.37413 0.833552 1.45654C0.710244 1.53896 0.61414 1.65608 0.557387 1.7931C0.500635 1.93013 0.485782 2.0809 0.514708 2.22637C0.543633 2.37183 0.615039 2.50546 0.719896 2.61034L4.4699 6.36034C4.61054 6.50095 4.80127 6.57993 5.00015 6.57993C5.19902 6.57993 5.38975 6.50095 5.5304 6.36034L9.2804 2.61034C9.38525 2.50546 9.45666 2.37183 9.48558 2.22637C9.51451 2.0809 9.49966 1.93013 9.4429 1.7931C9.38615 1.65608 9.29005 1.53896 9.16674 1.45654C9.04343 1.37413 9.14837 1.45656 9.00006 1.45653L5.00006 5.58009Z" fill="#1E0A01" fill-opacity="0.7" stroke="#1E0A01" stroke-opacity="0.7" />
</svg>