<svg width="10" height="8" viewBox="0 0 10 8" fill="none" xmlns="http://www.w3.org/2000/svg">
  <path fill-rule="evenodd" clip-rule="evenodd" d="M5 5.58009C4.85169 5.58013 0.956798 1.37413 0.833491 1.45654C0.710183 1.53896 0.614079 1.65608 0.557326 1.7931C0.500573 1.93013 0.485721 2.0809 0.514647 2.22637C0.543572 2.37183 0.614978 2.50546 0.719835 2.61034L4.46983 6.36034C4.61048 6.50095 4.80121 6.57993 5.00008 6.57993C5.19896 6.57993 5.38969 6.50095 5.53033 6.36034L9.28034 2.61034C9.38519 2.50546 9.4566 2.37183 9.48552 2.22637C9.51445 2.0809 9.49959 1.93013 9.44284 1.7931C9.38609 1.65608 9.28999 1.53896 9.16668 1.45654C9.04337 1.37413 9.14831 1.45656 9 1.45653L5 5.58009Z" fill="#1E0A01" fill-opacity="0.7" stroke="#1E0A01" stroke-opacity="0.7" />
</svg>