<svg width="18" height="20" viewBox="0 0 18 20" fill="none" xmlns="http://www.w3.org/2000/svg">
  <path d="M4.22012 3.02505C4.3611 2.88411 4.55229 2.80493 4.75163 2.80493C4.95098 2.80493 5.14217 2.88411 5.28315 3.02505L9.00454 6.74643L12.7259 3.02505C12.8677 2.8881 13.0576 2.81232 13.2547 2.81404C13.4519 2.81575 13.6404 2.89482 13.7798 3.0342C13.9192 3.17359 13.9983 3.36215 14 3.55927C14.0017 3.75639 13.9259 3.94629 13.789 4.08808L9.53606 8.34099C9.39508 8.48193 9.20389 8.56111 9.00454 8.56111C8.80519 8.56111 8.614 8.48193 8.47302 8.34099L4.22012 4.08808C4.07918 3.9471 4 3.75592 4 3.55657C4 3.35722 4.07918 3.16603 4.22012 3.02505Z" fill="#FF682D" />
  <path d="M1.83017 8.89121C2.04165 8.6798 2.32843 8.56104 2.62745 8.56104C2.92648 8.56104 3.21326 8.6798 3.42473 8.89121L9.00681 14.4733L14.5889 8.89121C14.8016 8.68579 15.0864 8.57212 15.3821 8.57469C15.6778 8.57726 15.9606 8.69586 16.1697 8.90495C16.3788 9.11403 16.4974 9.39687 16.5 9.69254C16.5025 9.98822 16.3889 10.2731 16.1834 10.4858L9.80409 16.8651C9.59261 17.0765 9.30583 17.1953 9.00681 17.1953C8.70778 17.1953 8.421 17.0765 8.20953 16.8651L1.83017 10.4858C1.61876 10.2743 1.5 9.98751 1.5 9.68849C1.5 9.38946 1.61876 9.10268 1.83017 8.89121Z" fill="#FF682D" />
</svg>