<svg width="50" height="50" viewBox="0 0 50 50" fill="none" xmlns="http://www.w3.org/2000/svg">
  <g clip-path="url(#clip0_606_1675)">
    <path d="M21.0937 7.8125C20.8865 7.8125 20.6878 7.89481 20.5413 8.04132C20.3948 8.18784 20.3125 8.38655 20.3125 8.59375V10.9375H19.5312C19.324 10.9375 19.1253 11.0198 18.9788 11.1663C18.8323 11.3128 18.75 11.5115 18.75 11.7188V14.0625H15.625V10.1656C15.6262 10.0612 15.6066 9.95755 15.5671 9.86085C15.5276 9.76415 15.4691 9.67634 15.3951 9.60263C15.3211 9.52892 15.2331 9.4708 15.1362 9.4317C15.0394 9.3926 14.9357 9.37332 14.8312 9.375C14.6246 9.37829 14.4276 9.46334 14.2835 9.61153C14.1395 9.75971 14.06 9.95895 14.0625 10.1656V14.0625H11.664C6.07029 14.0625 1.61404 18.9906 1.61404 25C1.61404 28.9719 3.56716 32.4625 6.50466 34.3781H0.789038V34.375C0.579351 34.375 0.378253 34.4583 0.229982 34.6066C0.0817108 34.7548 -0.00158691 34.9559 -0.00158691 35.1656V38.275C-0.000812601 38.4414 0.052467 38.6034 0.150662 38.7378C0.248856 38.8722 0.386956 38.9721 0.545288 39.0234C0.56994 39.0314 0.59497 39.0382 0.620288 39.0438C0.675587 39.0571 0.732165 39.0644 0.789038 39.0656H3.92341C3.42966 39.7203 3.12498 40.5266 3.12498 41.4062C3.12498 43.5547 4.88279 45.3125 7.03123 45.3125C9.17966 45.3125 10.9375 43.5547 10.9375 41.4062C10.9375 40.5266 10.6328 39.7203 10.1375 39.0656H11.7375C11.2422 39.7203 10.9375 40.5266 10.9375 41.4062C10.9375 43.5547 12.6953 45.3125 14.8437 45.3125C16.9922 45.3125 18.75 43.5547 18.75 41.4062C18.75 40.5266 18.4453 39.7203 17.95 39.0656H33.6125C33.1172 39.7203 32.8125 40.5266 32.8125 41.4062C32.8125 43.5547 34.5703 45.3125 36.7187 45.3125C38.8515 45.3125 40.5937 43.5781 40.6187 41.4531C40.6339 42.4795 41.0513 43.459 41.7813 44.1808C42.5112 44.9025 43.4953 45.3089 44.5219 45.3125C46.6703 45.3125 48.4281 43.5547 48.4281 41.4062C48.4281 40.5266 48.1234 39.7203 47.6281 39.0656H49.2094C49.2354 39.0669 49.2615 39.0669 49.2875 39.0656C49.3148 39.0618 49.3419 39.0566 49.3687 39.05C49.5471 39.0133 49.7073 38.9161 49.8224 38.7749C49.9374 38.6337 50.0001 38.4571 50 38.275V35.1656L49.9875 35.1813C49.9891 35.0774 49.9703 34.9743 49.9321 34.8777C49.8939 34.7812 49.837 34.6931 49.7648 34.6185C49.6925 34.5439 49.6063 34.4843 49.511 34.4431C49.4157 34.4018 49.3132 34.3798 49.2094 34.3781H43.4968C46.4328 32.4625 48.3859 28.9719 48.3859 25C48.3859 19.2547 44.3093 14.5094 39.0625 14.1016V12.5H37.5V14.0625H34.375V12.5H32.8125V14.0625H28.125V11.7188C28.125 11.5115 28.0427 11.3128 27.8962 11.1663C27.7496 11.0198 27.5509 10.9375 27.3437 10.9375H26.5625V8.59375C26.5625 8.38655 26.4802 8.18784 26.3337 8.04132C26.1871 7.89481 25.9884 7.8125 25.7812 7.8125H21.0937ZM21.875 9.375H25V10.9375H21.875V9.375ZM20.3125 12.5H26.5625V14.0625H20.3125V12.5ZM11.664 15.625H14.7765C14.815 15.6279 14.8537 15.6279 14.8922 15.625H32.8125V34.375H11.664C6.98904 34.375 3.17654 30.2437 3.17654 25C3.17654 19.7563 6.98904 15.625 11.664 15.625ZM34.375 15.625H37.5V17.1875H34.375V15.625ZM39.0625 15.6641C43.4 16.0672 46.8234 20.0312 46.8234 25C46.8234 29.9688 43.4 33.9328 39.0625 34.3359V15.6641ZM34.375 18.75H37.5V20.3125H34.375V18.75ZM34.375 21.875H37.5V23.4375H34.375V21.875ZM34.375 25H37.5V26.5625H34.375V25ZM34.375 28.125H37.5V29.6875H34.375V28.125ZM34.375 31.25H37.5V34.375H34.375V31.25ZM1.58123 35.9562H48.4187V37.4844H1.58123V35.9562ZM6.99998 39.0656H7.06248C8.34998 39.0813 9.37498 40.1125 9.37498 41.4062C9.37498 42.7094 8.33435 43.75 7.03123 43.75C5.7281 43.75 4.68748 42.7094 4.68748 41.4062C4.68748 40.1125 5.71248 39.0828 6.99998 39.0656ZM14.8125 39.0656H14.875C16.1625 39.0813 17.1875 40.1125 17.1875 41.4062C17.1875 42.7094 16.1469 43.75 14.8437 43.75C13.5406 43.75 12.5 42.7094 12.5 41.4062C12.5 40.1125 13.525 39.0828 14.8125 39.0656ZM36.6875 39.0656H36.75C38.0375 39.0813 39.0625 40.1125 39.0625 41.4062C39.0625 42.7094 38.0219 43.75 36.7187 43.75C35.4156 43.75 34.375 42.7094 34.375 41.4062C34.375 40.1125 35.4 39.0828 36.6875 39.0656ZM39.825 39.0656H41.4156C40.9104 39.7253 40.631 40.5301 40.6187 41.3609C40.6075 40.5304 40.3292 39.7256 39.825 39.0656ZM44.4922 39.0656H44.5531C45.8422 39.0813 46.8656 40.1125 46.8656 41.4062C46.8656 42.7094 45.825 43.75 44.5219 43.75C43.2187 43.75 42.1781 42.7094 42.1781 41.4062C42.1781 40.1125 43.2047 39.0828 44.4922 39.0656Z" fill="#541E09" />
    <path d="M7.8125 41.4064C7.8125 41.6136 7.73019 41.8122 7.58368 41.9587C7.43716 42.1053 7.23845 42.1876 7.03125 42.1876C6.82405 42.1876 6.62534 42.1053 6.47882 41.9587C6.33231 41.8122 6.25 41.6136 6.25 41.4064C6.25 41.1992 6.33231 41.0003 6.47882 40.8538C6.62534 40.7073 6.82405 40.6251 7.03125 40.6251C7.23845 40.6251 7.43716 40.7073 7.58368 40.8538C7.73019 41.0003 7.8125 41.1992 7.8125 41.4064ZM37.5 41.4064C37.5 41.6136 37.4177 41.8122 37.2712 41.9587C37.1247 42.1053 36.926 42.1876 36.7188 42.1876C36.5115 42.1876 36.3128 42.1053 36.1663 41.9587C36.0198 41.8122 35.9375 41.6136 35.9375 41.4064C35.9375 41.1992 36.0198 41.0003 36.1663 40.8538C36.3128 40.7073 36.5115 40.6251 36.7188 40.6251C36.926 40.6251 37.1247 40.7073 37.2712 40.8538C37.4177 41.0003 37.5 41.1992 37.5 41.4064ZM15.625 41.4064C15.625 41.6136 15.5427 41.8122 15.3962 41.9587C15.2497 42.1053 15.051 42.1876 14.8438 42.1876C14.6365 42.1876 14.4378 42.1053 14.2913 41.9587C14.1448 41.8122 14.0625 41.6136 14.0625 41.4064C14.0625 41.1992 14.1448 41.0003 14.2913 40.8538C14.4378 40.7073 14.6365 40.6251 14.8438 40.6251C15.051 40.6251 15.2497 40.7073 15.3962 40.8538C15.5427 41.0003 15.625 41.1992 15.625 41.4064ZM45.3031 41.4064C45.3031 41.6136 45.2208 41.8122 45.0743 41.9587C44.9278 42.1053 44.7291 42.1876 44.5219 42.1876C44.3147 42.1876 44.116 42.1053 43.9694 41.9587C43.8229 41.8122 43.7406 41.6136 43.7406 41.4064C43.7406 41.1992 43.8229 41.0003 43.9694 40.8538C44.116 40.7073 44.3147 40.6251 44.5219 40.6251C44.7291 40.6251 44.9278 40.7073 45.0743 40.8538C45.2208 41.0003 45.3031 41.1992 45.3031 41.4064Z" fill="#FF682D" />
    <path d="M49 35H1.5V38.5H49V35Z" fill="#FF682D" />
    <path d="M21 8.5V11H25.5V8.5H21Z" fill="#FF682D" />
    <path d="M38.5 34.5V15C45.7 15 47.8333 21.6667 48 25C46 34.2 40.8333 35.1667 38.5 34.5Z" fill="#FF682D" />
  </g>
  <defs>
    <clipPath id="clip0_606_1675">
      <rect width="50" height="50" fill="white" />
    </clipPath>
  </defs>
</svg>