<svg width="20" height="20" viewBox="0 0 20 20" fill="none" xmlns="http://www.w3.org/2000/svg">
  <path d="M14 2.75C14 2.55109 14.079 2.36032 14.2197 2.21967C14.3604 2.07902 14.5511 2 14.75 2H17.25C17.4489 2 17.6397 2.07902 17.7804 2.21967C17.921 2.36032 18 2.55109 18 2.75V5.25C18 5.44891 17.921 5.63968 17.7804 5.78033C17.6397 5.92098 17.4489 6 17.25 6C17.0511 6 16.8604 5.92098 16.7197 5.78033C16.579 5.63968 16.5 5.44891 16.5 5.25V4.56L12.03 9.03C11.8894 9.17045 11.6988 9.24934 11.5 9.24934C11.3013 9.24934 11.1107 9.17045 10.97 9.03L8.50003 6.56L4.28003 10.78C4.21137 10.8537 4.12857 10.9128 4.03657 10.9538C3.94457 10.9948 3.84526 11.0168 3.74455 11.0186C3.64385 11.0204 3.54382 11.0018 3.45043 10.9641C3.35705 10.9264 3.27221 10.8703 3.20099 10.799C3.12977 10.7278 3.07363 10.643 3.03591 10.5496C2.99819 10.4562 2.97966 10.3562 2.98144 10.2555C2.98322 10.1548 3.00526 10.0555 3.04625 9.96346C3.08724 9.87146 3.14634 9.78866 3.22003 9.72L7.97003 4.97C8.11066 4.82955 8.30128 4.75066 8.50003 4.75066C8.69878 4.75066 8.88941 4.82955 9.03003 4.97L11.5 7.44L15.44 3.5H14.75C14.5511 3.5 14.3604 3.42098 14.2197 3.28033C14.079 3.13968 14 2.94891 14 2.75ZM3.75003 14C3.94894 14 4.13971 14.079 4.28036 14.2197C4.42101 14.3603 4.50003 14.5511 4.50003 14.75V17.25C4.50003 17.4489 4.42101 17.6397 4.28036 17.7803C4.13971 17.921 3.94894 18 3.75003 18C3.55112 18 3.36035 17.921 3.2197 17.7803C3.07905 17.6397 3.00003 17.4489 3.00003 17.25V14.75C3.00003 14.5511 3.07905 14.3603 3.2197 14.2197C3.36035 14.079 3.55112 14 3.75003 14ZM8.50003 11.75C8.50003 11.5511 8.42101 11.3603 8.28036 11.2197C8.13971 11.079 7.94894 11 7.75003 11C7.55112 11 7.36035 11.079 7.2197 11.2197C7.07905 11.3603 7.00003 11.5511 7.00003 11.75V17.25C7.00003 17.4489 7.07905 17.6397 7.2197 17.7803C7.36035 17.921 7.55112 18 7.75003 18C7.94894 18 8.13971 17.921 8.28036 17.7803C8.42101 17.6397 8.50003 17.4489 8.50003 17.25V11.75ZM11.75 13C11.9489 13 12.1397 13.079 12.2804 13.2197C12.421 13.3603 12.5 13.5511 12.5 13.75V17.25C12.5 17.4489 12.421 17.6397 12.2804 17.7803C12.1397 17.921 11.9489 18 11.75 18C11.5511 18 11.3604 17.921 11.2197 17.7803C11.079 17.6397 11 17.4489 11 17.25V13.75C11 13.5511 11.079 13.3603 11.2197 13.2197C11.3604 13.079 11.5511 13 11.75 13ZM16.5 9.75C16.5 9.55109 16.421 9.36032 16.2804 9.21967C16.1397 9.07902 15.9489 9 15.75 9C15.5511 9 15.3604 9.07902 15.2197 9.21967C15.079 9.36032 15 9.55109 15 9.75V17.25C15 17.4489 15.079 17.6397 15.2197 17.7803C15.3604 17.921 15.5511 18 15.75 18C15.9489 18 16.1397 17.921 16.2804 17.7803C16.421 17.6397 16.5 17.4489 16.5 17.25V9.75Z" fill="#FF682D" />
</svg>