<svg width="50" height="33" viewBox="0 0 50 33" fill="none" xmlns="http://www.w3.org/2000/svg">
  <path fill-rule="evenodd" clip-rule="evenodd" d="M1.51487 21.8649C1.41328 21.8634 1.31241 21.8825 1.21814 21.9211C1.12386 21.9597 1.03807 22.017 0.965719 22.0897C0.893371 22.1623 0.835918 22.2489 0.796707 22.3444C0.757495 22.4398 0.737305 22.5423 0.737305 22.6458C0.737305 22.7493 0.757495 22.8517 0.796707 22.9472C0.835918 23.0427 0.893371 23.1292 0.965719 23.2019C1.03807 23.2745 1.12386 23.3318 1.21814 23.3704C1.31241 23.409 1.41328 23.4281 1.51487 23.4267H4.58141C4.683 23.4281 4.78384 23.409 4.87812 23.3704C4.97239 23.3318 5.05819 23.2745 5.13053 23.2019C5.20288 23.1292 5.26033 23.0427 5.29955 22.9472C5.33876 22.8517 5.35895 22.7493 5.35895 22.6458C5.35895 22.5423 5.33876 22.4398 5.29955 22.3444C5.26033 22.2489 5.20288 22.1623 5.13053 22.0897C5.05819 22.017 4.97239 21.9597 4.87812 21.9211C4.78384 21.8825 4.683 21.8634 4.58141 21.8649H1.51487Z" fill="#FF682D" />
  <path d="M13.7928 24.9882C12.5317 24.9882 11.4929 26.0463 11.4929 27.3309C11.4929 28.6155 12.5317 29.6735 13.7928 29.6735C15.0539 29.6735 16.0927 28.6155 16.0927 27.3309C16.0927 26.0463 15.0539 24.9882 13.7928 24.9882ZM13.7928 26.55C14.2253 26.55 14.5595 26.8904 14.5595 27.3309C14.5595 27.7714 14.2253 28.1118 13.7928 28.1118C13.3603 28.1118 13.0262 27.7714 13.0262 27.3309C13.0262 26.8904 13.3603 26.55 13.7928 26.55ZM39.0918 24.9882C37.8307 24.9882 36.7919 26.0463 36.7919 27.3309C36.7919 28.6155 37.8307 29.6735 39.0918 29.6735C40.3529 29.6735 41.3917 28.6155 41.3917 27.3309C41.3917 26.0463 40.3529 24.9882 39.0918 24.9882ZM39.0918 26.55C39.5243 26.55 39.8584 26.8904 39.8584 27.3309C39.8584 27.7714 39.5243 28.1118 39.0918 28.1118C38.6593 28.1118 38.3252 27.7714 38.3252 27.3309C38.3252 26.8904 38.6593 26.55 39.0918 26.55ZM45.9915 17.1794C45.7882 17.1794 45.5932 17.2617 45.4495 17.4081C45.3057 17.5545 45.2249 17.7532 45.2249 17.9603V21.0838C45.2249 21.2909 45.3057 21.4895 45.4495 21.6359C45.5932 21.7824 45.7882 21.8647 45.9915 21.8647H49.0581C49.2614 21.8647 49.4564 21.7824 49.6001 21.6359C49.7439 21.4895 49.8247 21.2909 49.8247 21.0838V17.9603C49.8247 17.7532 49.7439 17.5545 49.6001 17.4081C49.4564 17.2617 49.2614 17.1794 49.0581 17.1794H45.9915ZM46.7582 18.7412H48.2914V20.3029H46.7582V18.7412Z" fill="#FF682D" />
  <path fill-rule="evenodd" clip-rule="evenodd" d="M35.247 16.3987C35.1455 16.3973 35.0446 16.4164 34.9503 16.455C34.856 16.4936 34.7702 16.5509 34.6979 16.6235C34.6256 16.6962 34.5681 16.7827 34.5289 16.8782C34.4897 16.9737 34.4695 17.0761 34.4695 17.1796C34.4695 17.2831 34.4897 17.3856 34.5289 17.481C34.5681 17.5765 34.6256 17.6631 34.6979 17.7357C34.7702 17.8084 34.856 17.8657 34.9503 17.9043C35.0446 17.9429 35.1455 17.962 35.247 17.9605H36.8013C36.9029 17.962 37.0037 17.9429 37.098 17.9043C37.1923 17.8657 37.2781 17.8084 37.3504 17.7357C37.4228 17.6631 37.4802 17.5765 37.5194 17.481C37.5586 17.3856 37.5788 17.2831 37.5788 17.1796C37.5788 17.0761 37.5586 16.9737 37.5194 16.8782C37.4802 16.7827 37.4228 16.6962 37.3504 16.6235C37.2781 16.5509 37.1923 16.4936 37.098 16.455C37.0037 16.4164 36.9029 16.3973 36.8013 16.3987H35.247ZM5.34826 3.12369C5.24758 3.12529 5.1482 3.14707 5.05579 3.1878C4.96337 3.22852 4.87974 3.28738 4.80966 3.36102C4.73958 3.43467 4.68444 3.52166 4.64736 3.61701C4.61029 3.71237 4.59202 3.81423 4.5936 3.91678V16.3987C4.59216 16.5022 4.61093 16.6049 4.64881 16.701C4.6867 16.797 4.74294 16.8844 4.81427 16.9581C4.8856 17.0318 4.9706 17.0903 5.06432 17.1302C5.15805 17.1702 5.25864 17.1907 5.36024 17.1907C5.46183 17.1907 5.56242 17.1702 5.65615 17.1302C5.74987 17.0903 5.83487 17.0318 5.9062 16.9581C5.97753 16.8844 6.03377 16.797 6.07166 16.701C6.10954 16.6049 6.12831 16.5022 6.12687 16.3987V3.91678C6.12848 3.81218 6.10945 3.70833 6.07089 3.61136C6.03232 3.5144 5.97504 3.4263 5.90241 3.35232C5.82979 3.27835 5.74329 3.22 5.6481 3.18072C5.5529 3.14144 5.45095 3.12205 5.34826 3.12369ZM9.94807 3.12369C9.84739 3.12529 9.74801 3.14707 9.6556 3.1878C9.56319 3.22852 9.47955 3.28738 9.40947 3.36102C9.3394 3.43467 9.28425 3.52166 9.24718 3.61701C9.21011 3.71237 9.19184 3.81423 9.19341 3.91678V16.3987C9.19198 16.5022 9.21075 16.6049 9.24863 16.701C9.28651 16.797 9.34275 16.8844 9.41408 16.9581C9.48541 17.0318 9.57041 17.0903 9.66414 17.1302C9.75787 17.1702 9.85845 17.1907 9.96005 17.1907C10.0616 17.1907 10.1622 17.1702 10.256 17.1302C10.3497 17.0903 10.4347 17.0318 10.506 16.9581C10.5773 16.8844 10.6336 16.797 10.6715 16.701C10.7094 16.6049 10.7281 16.5022 10.7267 16.3987V3.91678C10.7283 3.81218 10.7093 3.70833 10.6707 3.61136C10.6321 3.5144 10.5749 3.4263 10.5022 3.35232C10.4296 3.27835 10.3431 3.22 10.2479 3.18072C10.1527 3.14144 10.0508 3.12205 9.94807 3.12369ZM14.5479 3.12369C14.4472 3.12529 14.3478 3.14707 14.2554 3.1878C14.163 3.22852 14.0794 3.28738 14.0093 3.36102C13.9392 3.43467 13.8841 3.52166 13.847 3.61701C13.8099 3.71237 13.7917 3.81423 13.7932 3.91678V16.3987C13.7918 16.5022 13.8106 16.6049 13.8484 16.701C13.8863 16.797 13.9426 16.8844 14.0139 16.9581C14.0852 17.0318 14.1702 17.0903 14.264 17.1302C14.3577 17.1702 14.4583 17.1907 14.5599 17.1907C14.6615 17.1907 14.762 17.1702 14.8558 17.1302C14.9495 17.0903 15.0345 17.0318 15.1058 16.9581C15.1772 16.8844 15.2334 16.797 15.2713 16.701C15.3092 16.6049 15.3279 16.5022 15.3265 16.3987V3.91678C15.3281 3.81218 15.3091 3.70833 15.2705 3.61136C15.232 3.5144 15.1747 3.4263 15.102 3.35232C15.0294 3.27835 14.9429 3.22 14.8477 3.18072C14.7525 3.14144 14.6506 3.12205 14.5479 3.12369ZM19.1477 3.12369C19.047 3.12529 18.9476 3.14707 18.8552 3.1878C18.7628 3.22852 18.6792 3.28738 18.6091 3.36102C18.539 3.43467 18.4839 3.52166 18.4468 3.61701C18.4097 3.71237 18.3915 3.81423 18.393 3.91678V16.3987C18.3916 16.5022 18.4104 16.6049 18.4483 16.701C18.4861 16.797 18.5424 16.8844 18.6137 16.9581C18.685 17.0318 18.77 17.0903 18.8638 17.1302C18.9575 17.1702 19.0581 17.1907 19.1597 17.1907C19.2613 17.1907 19.3619 17.1702 19.4556 17.1302C19.5493 17.0903 19.6343 17.0318 19.7056 16.9581C19.777 16.8844 19.8332 16.797 19.8711 16.701C19.909 16.6049 19.9278 16.5022 19.9263 16.3987V3.91678C19.9279 3.81218 19.9089 3.70833 19.8703 3.61136C19.8318 3.5144 19.7745 3.4263 19.7019 3.35232C19.6292 3.27835 19.5427 3.22 19.4475 3.18072C19.3523 3.14144 19.2504 3.12205 19.1477 3.12369ZM23.7475 3.12369C23.6468 3.12529 23.5475 3.14707 23.455 3.1878C23.3626 3.22852 23.279 3.28738 23.2089 3.36102C23.1388 3.43467 23.0837 3.52166 23.0466 3.61701C23.0095 3.71237 22.9913 3.81423 22.9929 3.91678V16.3987C22.9914 16.5022 23.0102 16.6049 23.0481 16.701C23.086 16.797 23.1422 16.8844 23.2135 16.9581C23.2849 17.0318 23.3699 17.0903 23.4636 17.1302C23.5573 17.1702 23.6579 17.1907 23.7595 17.1907C23.8611 17.1907 23.9617 17.1702 24.0554 17.1302C24.1491 17.0903 24.2341 17.0318 24.3055 16.9581C24.3768 16.8844 24.433 16.797 24.4709 16.701C24.5088 16.6049 24.5276 16.5022 24.5261 16.3987V3.91678C24.5277 3.81218 24.5087 3.70833 24.4701 3.61136C24.4316 3.5144 24.3743 3.4263 24.3017 3.35232C24.229 3.27835 24.1425 3.22 24.0474 3.18072C23.9522 3.14144 23.8502 3.12205 23.7475 3.12369ZM28.3473 3.12369C28.2466 3.12529 28.1473 3.14707 28.0549 3.1878C27.9624 3.22852 27.8788 3.28738 27.8087 3.36102C27.7387 3.43467 27.6835 3.52166 27.6464 3.61701C27.6094 3.71237 27.5911 3.81423 27.5927 3.91678V16.3987C27.5912 16.5022 27.61 16.6049 27.6479 16.701C27.6858 16.797 27.742 16.8844 27.8133 16.9581C27.8847 17.0318 27.9697 17.0903 28.0634 17.1302C28.1571 17.1702 28.2577 17.1907 28.3593 17.1907C28.4609 17.1907 28.5615 17.1702 28.6552 17.1302C28.7489 17.0903 28.834 17.0318 28.9053 16.9581C28.9766 16.8844 29.0328 16.797 29.0707 16.701C29.1086 16.6049 29.1274 16.5022 29.1259 16.3987V3.91678C29.1276 3.81218 29.1085 3.70833 29.07 3.61136C29.0314 3.5144 28.9741 3.4263 28.9015 3.35232C28.8288 3.27835 28.7424 3.22 28.6472 3.18072C28.552 3.14144 28.45 3.12205 28.3473 3.12369Z" fill="#FF682D" />
  <path d="M1.52665 0C1.32333 2.06694e-05 1.12835 0.0822874 0.984587 0.228727C0.840819 0.375167 0.76003 0.573788 0.76001 0.780885V25.7692C0.76003 25.9763 0.840819 26.1749 0.984587 26.3214C1.12835 26.4678 1.32333 26.5501 1.52665 26.5501H9.28584C9.38742 26.5516 9.48827 26.5325 9.58254 26.4939C9.67681 26.4553 9.76262 26.398 9.83496 26.3253C9.90731 26.2527 9.96476 26.1661 10.004 26.0706C10.0432 25.9752 10.0634 25.8727 10.0634 25.7692C10.0634 25.6657 10.0432 25.5633 10.004 25.4678C9.96476 25.3723 9.90731 25.2858 9.83496 25.2131C9.76262 25.1404 9.67681 25.0832 9.58254 25.0446C9.48827 25.006 9.38742 24.9869 9.28584 24.9883H2.29328V1.56177H31.4254V24.9883H23.2859H18.2908C18.1892 24.9869 18.0884 25.006 17.9941 25.0446C17.8998 25.0832 17.814 25.1404 17.7417 25.2131C17.6693 25.2858 17.6119 25.3723 17.5727 25.4678C17.5335 25.5633 17.5133 25.6657 17.5133 25.7692C17.5133 25.8727 17.5335 25.9752 17.5727 26.0706C17.6119 26.1661 17.6693 26.2527 17.7417 26.3253C17.814 26.398 17.8998 26.4553 17.9941 26.4939C18.0884 26.5325 18.1892 26.5516 18.2908 26.5501H23.2859H32.1921C32.3954 26.5501 32.5904 26.4678 32.7341 26.3214C32.8779 26.1749 32.9587 25.9763 32.9587 25.7692V0.780885C32.9587 0.573788 32.8779 0.375167 32.7341 0.228727C32.5904 0.0822874 32.3954 2.06694e-05 32.1921 0H1.52665Z" fill="#541E09" />
  <path fill-rule="evenodd" clip-rule="evenodd" d="M1.53559 18.7414C1.43401 18.7399 1.33316 18.759 1.23889 18.7976C1.14462 18.8362 1.05879 18.8935 0.986447 18.9661C0.9141 19.0388 0.85667 19.1254 0.817459 19.2208C0.778247 19.3163 0.758057 19.4187 0.758057 19.5222C0.758057 19.6257 0.778247 19.7282 0.817459 19.8236C0.85667 19.9191 0.9141 20.0057 0.986447 20.0783C1.05879 20.151 1.14462 20.2083 1.23889 20.2469C1.33316 20.2855 1.43401 20.3046 1.53559 20.3031H31.9285C32.0301 20.3046 32.131 20.2855 32.2252 20.2469C32.3195 20.2083 32.4053 20.151 32.4776 20.0783C32.55 20.0057 32.6074 19.9191 32.6467 19.8236C32.6859 19.7282 32.7061 19.6257 32.7061 19.5222C32.7061 19.4187 32.6859 19.3163 32.6467 19.2208C32.6074 19.1254 32.55 19.0388 32.4776 18.9661C32.4053 18.8935 32.3195 18.8362 32.2252 18.7976C32.131 18.759 32.0301 18.7399 31.9285 18.7414H1.53559Z" fill="#FF682D" />
  <path d="M32.1921 3.12367C32.0905 3.12221 31.9897 3.14133 31.8954 3.17991C31.8011 3.2185 31.7153 3.27579 31.643 3.34845C31.5706 3.4211 31.5132 3.50768 31.474 3.60315C31.4347 3.69862 31.4146 3.80107 31.4146 3.90456C31.4146 4.00805 31.4347 4.1105 31.474 4.20597C31.5132 4.30144 31.5706 4.38802 31.643 4.46067C31.7153 4.53333 31.8011 4.59062 31.8954 4.6292C31.9897 4.66779 32.0905 4.68691 32.1921 4.68544H40.6251L48.3394 13.6656C48.4058 13.743 48.4866 13.8062 48.577 13.8517C48.6675 13.8972 48.7659 13.9242 48.8665 13.931C48.9672 13.9378 49.0682 13.9243 49.1638 13.8914C49.2593 13.8584 49.3476 13.8066 49.4235 13.7389C49.4994 13.6712 49.5615 13.5889 49.6061 13.4968C49.6508 13.4046 49.6773 13.3044 49.6839 13.2019C49.6906 13.0994 49.6774 12.9965 49.645 12.8992C49.6127 12.8018 49.5618 12.7119 49.4953 12.6346L41.5475 3.38905C41.4756 3.30578 41.3872 3.23904 41.288 3.19328C41.1889 3.14752 41.0813 3.12381 40.9725 3.12367H32.1921Z" fill="#FF682D" />
  <path d="M32.1922 12.4941C31.9889 12.4941 31.7939 12.5764 31.6501 12.7228C31.5063 12.8692 31.4256 13.0679 31.4255 13.275V24.552V25.7691C31.4256 25.9762 31.5063 26.1748 31.6501 26.3213C31.7939 26.4677 31.9889 26.55 32.1922 26.55H34.3034C34.405 26.5515 34.5059 26.5324 34.6001 26.4938C34.6944 26.4552 34.7802 26.3979 34.8526 26.3252C34.9249 26.2526 34.9824 26.166 35.0216 26.0705C35.0608 25.9751 35.081 25.8726 35.081 25.7691C35.081 25.6656 35.0608 25.5632 35.0216 25.4677C34.9824 25.3723 34.9249 25.2857 34.8526 25.213C34.7802 25.1404 34.6944 25.0831 34.6001 25.0445C34.5059 25.0059 34.405 24.9868 34.3034 24.9882H32.9588V24.552V14.0559H48.2915V24.9882H43.7606C43.659 24.9868 43.5581 25.0059 43.4639 25.0445C43.3696 25.0831 43.2838 25.1404 43.2114 25.213C43.1391 25.2857 43.0816 25.3723 43.0424 25.4677C43.0032 25.5632 42.983 25.6656 42.983 25.7691C42.983 25.8726 43.0032 25.9751 43.0424 26.0705C43.0816 26.166 43.1391 26.2526 43.2114 26.3252C43.2838 26.3979 43.3696 26.4552 43.4639 26.4938C43.5581 26.5324 43.659 26.5515 43.7606 26.55H49.0582C49.2615 26.55 49.4565 26.4677 49.6002 26.3213C49.744 26.1748 49.8248 25.9762 49.8248 25.7691V13.275C49.8248 13.0679 49.744 12.8692 49.6002 12.7228C49.4565 12.5764 49.2615 12.4941 49.0582 12.4941H32.1922Z" fill="#541E09" />
  <path d="M13.793 21.8648C10.8382 21.8648 8.42651 24.3214 8.42651 27.331C8.42651 30.3407 10.8382 32.7972 13.793 32.7972C16.7477 32.7972 19.1594 30.3407 19.1594 27.331C19.1594 24.3214 16.7477 21.8648 13.793 21.8648ZM13.793 23.4266C15.919 23.4266 17.6261 25.1654 17.6261 27.331C17.6261 29.4966 15.9191 31.2354 13.793 31.2354C11.6669 31.2354 9.95979 29.4966 9.95979 27.331C9.95979 25.1654 11.6669 23.4266 13.793 23.4266ZM39.0919 21.8648C36.1372 21.8648 33.7255 24.3214 33.7255 27.331C33.7255 30.3407 36.1372 32.7972 39.0919 32.7972C42.0467 32.7972 44.4584 30.3407 44.4584 27.331C44.4584 24.3214 42.0467 21.8648 39.0919 21.8648ZM39.0919 23.4266C41.218 23.4266 42.9251 25.1654 42.9251 27.331C42.9251 29.4966 41.218 31.2354 39.0919 31.2354C36.9658 31.2354 35.2588 29.4966 35.2588 27.331C35.2588 25.1654 36.9658 23.4266 39.0919 23.4266Z" fill="#541E09" />
</svg>