<svg width="50" height="50" viewBox="0 0 50 50" fill="none" xmlns="http://www.w3.org/2000/svg">
  <g clip-path="url(#clip0_606_1664)">
    <path d="M21.1458 34.6875C21.1458 33.3333 20.625 32.0833 19.6875 31.0417L13.2292 24.5833C12.9167 24.2708 12.3958 24.1667 11.9792 24.2708C11.5625 24.375 11.1458 24.7917 11.0417 25.3125C10.8333 26.3542 10.3125 28.6458 10.8333 30.5208L10.9375 30.7292L13.2292 33.0208L12.5 33.125C11.4583 33.125 10.5208 32.7083 9.79167 31.9792L7.08333 29.2708V22.9167C7.08333 21.0417 5.9375 19.375 4.27083 18.6458C3.4375 18.3333 2.5 18.125 1.66667 18.125H0.625V30.8333C0.625 31.875 1.04167 32.8125 1.77083 33.5417L9.27083 41.0417V41.3542H6.45833V49.2708H23.5417V41.3542H21.1458V34.6875ZM3.125 32.1875C2.8125 31.875 2.60417 31.4583 2.60417 30.9375V20.4167C2.8125 20.5208 3.125 20.5208 3.33333 20.625C4.27083 21.0416 4.89583 21.9792 4.89583 22.9167V30.2083L8.22917 33.5417C9.375 34.6875 10.9375 35.3125 12.5 35.3125L15.1042 34.8958C15.5208 34.7917 15.9375 34.4792 16.0417 34.0625C16.1458 33.6458 16.0417 33.125 15.7292 32.8125L12.6042 29.6875C12.3958 28.8542 12.5 27.9167 12.6042 27.0833L18.0208 32.5C18.6458 33.125 18.9583 33.8541 18.9583 34.6875V41.5625H11.1458V41.25C11.1458 40.625 10.9375 40.1041 10.5208 39.6875L3.125 32.1875ZM21.3542 43.6458V47.3958H8.54167V43.6458H9.16667H21.1458H21.3542ZM45.8333 18.75C44.1667 19.4792 43.0208 21.1458 43.0208 23.0208V29.375L40.3125 32.0833C39.5833 32.8125 38.6458 33.2292 37.6042 33.2292L36.875 33.125L39.1667 30.8333L39.2708 30.625C39.7917 28.6458 39.375 26.4583 39.0625 25.3125C38.9583 24.8958 38.6458 24.4792 38.125 24.375C37.7083 24.2708 37.1875 24.375 36.875 24.6875L30.4167 31.1458C29.4792 32.0833 28.9583 33.4375 28.9583 34.7917V41.6667H26.5625V49.5833H43.6458V41.6667H40.9375V41.25L48.4375 33.75C49.1667 33.0208 49.5833 32.0833 49.5833 31.0417V18.2292H48.5417C47.5 18.2292 46.6667 18.4375 45.8333 18.75ZM41.4583 43.6458V47.3958H28.6458V43.6458H28.9583H40.9375H41.4583ZM47.3958 30.9375C47.3958 31.4583 47.1875 31.875 46.875 32.1875L39.375 39.6875C38.9583 40.1041 38.75 40.625 38.75 41.25V41.5625H30.9375V34.6875C30.9375 33.8541 31.25 33.125 31.875 32.5L37.2917 27.0833C37.3958 27.9167 37.5 28.8542 37.2917 29.6875L34.1667 32.8125C33.8542 33.125 33.75 33.6458 33.8542 34.0625C33.9583 34.4792 34.375 34.7917 34.7917 34.8958L37.2917 35.3125H37.5C39.1667 35.3125 40.625 34.6875 41.7708 33.5417L45.1042 30.2083V23.0208C45.1042 21.9792 45.7292 21.0417 46.6667 20.7292C46.875 20.625 47.1875 20.5208 47.3958 20.5208V30.9375ZM25.3125 7.39582C21.5625 7.18748 18.4375 10.1042 18.2292 13.8542C18.125 15.625 18.75 17.3958 20 18.75C21.25 20.1042 22.9167 20.8333 24.6875 20.9375C24.7917 20.9375 24.8958 20.9375 25 20.9375C28.5417 20.9375 31.5625 18.125 31.7708 14.4792C31.9792 10.7292 29.0625 7.60415 25.3125 7.39582ZM24.7917 18.8542C23.5417 18.75 22.3958 18.2292 21.5625 17.2917C20.7292 16.3542 20.3125 15.2083 20.3125 13.9583C20.4167 11.4583 22.5 9.47915 25 9.47915C25.1042 9.47915 25.2083 9.47915 25.2083 9.47915C27.8125 9.58332 29.7917 11.7708 29.6875 14.375C29.5833 16.9792 27.3958 18.9583 24.7917 18.8542Z" fill="#541E09" />
    <path d="M38.6459 16.3541V11.7708L35.9376 11.1458C35.7292 10.2083 35.3126 9.37498 34.7918 8.43748L36.2501 6.04165L32.9167 2.81248L30.5209 4.27081C29.6876 3.74998 28.7501 3.43748 27.8126 3.22915L27.1876 0.520813H22.6042L21.9792 3.22915C21.0417 3.43748 20.2084 3.85415 19.2709 4.37498L16.8751 2.91665L13.7501 6.24998L15.2084 8.64581C14.6876 9.47915 14.3751 10.4166 14.0626 11.3541L11.3542 11.9791V16.5625L14.0626 17.1875C14.2709 18.125 14.6876 18.9583 15.2084 19.8958L13.7501 22.2916L17.0834 25.5208L19.4792 24.0625C20.3126 24.5833 21.2501 24.8958 22.1876 25.1041L22.8126 27.8125H27.3959L28.0209 25.1041C28.9584 24.8958 29.7917 24.4791 30.7292 23.9583L33.1251 25.4166L36.3543 22.0833L34.8959 19.6875C35.4167 18.8541 35.7292 17.9166 35.9376 16.9791L38.6459 16.3541ZM34.1667 15.3125L34.0626 15.9375C33.8543 17.0833 33.4376 18.125 32.8126 19.1666L32.5001 19.6875L33.7501 21.7708L32.8126 22.7083L30.7292 21.4583L30.2084 21.875C29.2709 22.5 28.1251 23.0208 27.0834 23.2291L26.4584 23.3333L25.9376 25.7291H24.5834L23.9584 23.3333L23.3334 23.2291C22.1876 23.0208 21.1459 22.6041 20.1042 21.9791L19.5834 21.6666L17.5001 22.9166L16.4584 21.875L17.7084 19.7916L17.2917 19.2708C16.6667 18.3333 16.1459 17.1875 15.9376 16.1458L15.8334 15.5208L13.4376 15V13.6458L15.8334 13.0208L15.9376 12.3958C16.1459 11.25 16.5626 10.2083 17.1876 9.16665L17.5001 8.64581L16.2501 6.56248L17.1876 5.62498L19.2709 6.87498L19.7917 6.45831C20.7292 5.83331 21.8751 5.31248 22.9167 5.10415L23.5417 4.99998L24.0626 2.60415H25.4167L26.0417 4.99998L26.6667 5.10415C27.8126 5.31248 28.8542 5.72915 29.8959 6.35415L30.4167 6.66665L32.5001 5.41665L33.4376 6.35415L32.1876 8.43748L32.6042 8.95831C33.2292 9.89581 33.7501 11.0416 33.9584 12.0833L34.0626 12.7083L36.4584 13.2291V14.5833L34.1667 15.3125Z" fill="#FF682D" />
    <path d="M42.5 42.5H28V49H42.5V42.5Z" fill="#FF682D" />
    <path d="M22 42.5H8V49H22V42.5Z" fill="#FF682D" />
  </g>
  <defs>
    <clipPath id="clip0_606_1664">
      <rect width="50" height="50" fill="white" />
    </clipPath>
  </defs>
</svg>