<svg width="24" height="24" viewBox="0 0 24 24" fill="none" xmlns="http://www.w3.org/2000/svg">
  <path d="M17.999 3C18.1168 2.99991 18.2329 3.02757 18.3381 3.08074C18.4432 3.1339 18.5343 3.21107 18.604 3.306L18.659 3.393L21.922 9.421L21.96 9.514L21.972 9.554L21.992 9.656L21.998 9.75C21.9981 9.81758 21.989 9.88485 21.971 9.95L21.924 10.075L21.886 10.144C21.8735 10.1639 21.8602 10.1833 21.846 10.202C21.8349 10.2171 21.8232 10.2318 21.811 10.246L21.83 10.221L20.556 11.667C20.1246 11.3529 19.6268 11.1422 19.101 11.051L19.587 10.5H16.612L12.7 20.523C12.645 20.6638 12.5487 20.7847 12.4238 20.8698C12.2989 20.9549 12.1512 21.0003 12 21H11.997C11.9659 21 11.9348 20.998 11.904 20.994H11.9L11.895 20.993C11.8602 20.9878 11.8257 20.9801 11.792 20.97L11.782 20.968C11.7209 20.9505 11.6624 20.9249 11.608 20.892L11.599 20.885C11.5515 20.8558 11.5079 20.8209 11.469 20.781L2.179 10.235L2.153 10.203L2.113 10.144C2.05634 10.0525 2.02018 9.94981 2.007 9.843L2 9.75L2.003 9.684L2.016 9.595C2.02223 9.56587 2.03025 9.53715 2.04 9.509L2.062 9.45L2.09 9.393L5.34 3.393C5.39603 3.28946 5.47565 3.20056 5.57242 3.1335C5.66918 3.06644 5.78038 3.02311 5.897 3.007L5.999 3H17.999ZM15.002 10.5H8.998L11.998 18.187L12 18.184V18.188L15.002 10.5ZM7.389 10.5H4.409L9.76 16.574L7.389 10.5ZM8.971 4.5H6.445L4.007 9H7.531L8.971 4.5ZM13.451 4.5H10.546L9.105 9H14.89L13.45 4.5H13.451ZM17.551 4.5H15.026L16.466 9H19.988L17.551 4.5ZM21 14.5C21 15.163 20.7366 15.7989 20.2678 16.2678C19.7989 16.7366 19.163 17 18.5 17C17.837 17 17.2011 16.7366 16.7322 16.2678C16.2634 15.7989 16 15.163 16 14.5C16 13.837 16.2634 13.2011 16.7322 12.7322C17.2011 12.2634 17.837 12 18.5 12C19.163 12 19.7989 12.2634 20.2678 12.7322C20.7366 13.2011 21 13.837 21 14.5ZM23 19.875C23 21.431 21.714 23 18.5 23C15.286 23 14 21.437 14 19.875V19.772C14 18.792 14.794 18 15.773 18H21.227C22.207 18 23 18.793 23 19.772V19.875Z" fill="#FF682D" />
</svg>