<svg width="24" height="24" viewBox="0 0 24 24" fill="none" xmlns="http://www.w3.org/2000/svg">
  <path d="M5.10975 1.80444L4.05375 2.85894L5.625 4.42944L6.6795 3.37494L5.109 1.80444H5.10975ZM18.891 1.80444L17.3197 3.37494L18.375 4.42944L19.9455 2.85969L18.891 1.80444ZM12 2.27244C11.7525 2.27544 11.502 2.28969 11.25 2.32044C11.2425 2.32044 11.235 2.31894 11.2275 2.32044C8.1855 2.66919 5.7645 5.12694 5.34375 8.15544C5.00775 10.5929 6.01275 12.8032 7.6875 14.2267C8.37256 14.8114 8.83592 15.6136 9 16.4992V20.9992H10.71C10.971 21.4469 11.4473 21.7492 12 21.7492C12.5527 21.7492 13.029 21.4469 13.29 20.9992H15V17.9992H15.0705V17.1082C15.0705 16.0087 15.642 14.9002 16.5705 14.0384C17.8125 12.7949 18.75 11.0287 18.75 8.99994C18.75 5.29494 15.7005 2.23794 12 2.27244ZM12 3.77244C14.8988 3.73194 17.25 6.10494 17.25 8.99994C17.25 10.5704 16.5225 11.9534 15.5153 12.9599L15.5392 12.9839C14.5383 13.907 13.891 15.1505 13.7092 16.4999H10.4288C10.2638 15.2144 9.7125 13.9702 8.67075 13.0777C7.3455 11.9527 6.55575 10.2577 6.81975 8.34369C7.1475 5.98119 9.0645 4.08144 11.4135 3.82119C11.6074 3.79415 11.8027 3.77813 11.9985 3.77319L12 3.77244ZM1.5 8.99994V10.4999H3.75V8.99994H1.5ZM20.25 8.99994V10.4999H22.5V8.99994H20.25ZM5.625 15.0704L4.0545 16.6402L5.10975 17.6954L6.67875 16.1249L5.625 15.0704ZM18.375 15.0704L17.3205 16.1249L18.8903 17.6954L19.9455 16.6402L18.375 15.0704ZM10.5 17.9999H13.5V19.4999H10.5V17.9999Z" fill="#FF682D" />
</svg>