<svg width="50" height="50" viewBox="0 0 50 50" fill="none" xmlns="http://www.w3.org/2000/svg">
  <g clip-path="url(#clip0_606_1686)">
    <path d="M13.1593 40.4417H2.33851C1.75726 40.4417 1.56247 40.4417 1.56247 39.3886V36.8834C1.56247 36.6762 1.48016 36.4774 1.33364 36.3309C1.18713 36.1844 0.988418 36.1021 0.781217 36.1021C0.574017 36.1021 0.375303 36.1844 0.22879 36.3309C0.0822772 36.4774 -3.28124e-05 36.6762 -3.28124e-05 36.8834V39.3886C-0.0589181 39.7213 -0.0414742 40.063 0.0509828 40.388C0.14344 40.713 0.308495 41.0127 0.533696 41.2646C0.758898 41.5165 1.03836 41.7139 1.35101 41.842C1.66365 41.9702 2.00131 42.0256 2.33851 42.0042H13.1593C13.3665 42.0042 13.5653 41.9219 13.7118 41.7754C13.8583 41.6289 13.9406 41.4301 13.9406 41.2229C13.9406 41.0157 13.8583 40.817 13.7118 40.6705C13.5653 40.524 13.3665 40.4417 13.1593 40.4417ZM0.781217 34.424C0.988418 34.424 1.18713 34.3417 1.33364 34.1952C1.48016 34.0486 1.56247 33.8499 1.56247 33.6427V7.81773L25.2083 7.85835V20.8844C25.2083 21.0916 25.2906 21.2903 25.4371 21.4368C25.5836 21.5833 25.7824 21.6656 25.9896 21.6656C26.1968 21.6656 26.3955 21.5833 26.542 21.4368C26.6885 21.2903 26.7708 21.0916 26.7708 20.8844V7.85835C26.7747 7.43584 26.6106 7.02907 26.3147 6.72748C26.0188 6.42588 25.6152 6.25414 25.1927 6.25002H2.22497L5.79788 3.22919H28.5062C28.8377 3.22919 29.1557 3.36088 29.3901 3.5953C29.6245 3.82972 29.7562 4.14767 29.7562 4.47919V20.3334C29.7562 20.5406 29.8385 20.7393 29.985 20.8858C30.1316 21.0323 30.3303 21.1146 30.5375 21.1146C30.7447 21.1146 30.9434 21.0323 31.0899 20.8858C31.2364 20.7393 31.3187 20.5406 31.3187 20.3334V4.47919C31.3187 3.73327 31.0224 3.0179 30.495 2.49045C29.9675 1.963 29.2521 1.66669 28.5062 1.66669H5.51247C5.32789 1.66658 5.14926 1.7319 5.0083 1.85106L0.367675 5.78231C0.257968 5.89483 0.172212 6.02842 0.115592 6.17502C0.0430663 6.29151 0.0031356 6.42533 -3.28124e-05 6.56252V33.6459C0.000793826 33.8525 0.0834686 34.0504 0.229892 34.1963C0.376315 34.3421 0.574557 34.424 0.781217 34.424Z" fill="#541E09" />
    <path d="M28.2729 20.6052C28.4801 20.6052 28.6788 20.5229 28.8253 20.3764C28.9718 20.2299 29.0542 20.0311 29.0542 19.8239V6.29165C29.0533 5.67627 28.8088 5.08627 28.374 4.65074C27.9393 4.21521 27.3497 3.96962 26.7344 3.96769L7.20728 3.92706C7.00008 3.92706 6.80136 4.00937 6.65485 4.15589C6.50834 4.3024 6.42603 4.50111 6.42603 4.70831C6.42603 4.91551 6.50834 5.11423 6.65485 5.26074C6.80136 5.40725 7.00008 5.48956 7.20728 5.48956L26.7354 5.53019C26.9371 5.53074 27.1303 5.61117 27.2729 5.75389C27.4154 5.8966 27.4955 6.08996 27.4958 6.29165V19.8239C27.4958 20.0304 27.5776 20.2285 27.7232 20.3749C27.8688 20.5213 28.0664 20.6041 28.2729 20.6052ZM39.0333 35.4781C38.8261 35.4781 38.6274 35.5604 38.4809 35.7069C38.3344 35.8534 38.2521 36.0522 38.2521 36.2593V42.7552C38.2535 42.9077 38.2178 43.0582 38.1479 43.1937C37.7083 44.0323 35.625 46.7708 27.2917 46.7708C18.9583 46.7708 16.875 44.0354 16.4302 43.1958C16.3605 43.0606 16.3247 42.9104 16.326 42.7583V36.5906C16.326 36.3834 16.2437 36.1847 16.0972 36.0382C15.9507 35.8917 15.752 35.8094 15.5448 35.8094C15.3376 35.8094 15.1389 35.8917 14.9923 36.0382C14.8458 36.1847 14.7635 36.3834 14.7635 36.5906V42.7552C14.7613 43.1605 14.8571 43.5604 15.0427 43.9208C15.7448 45.2469 18.3333 48.3333 27.2917 48.3333C36.25 48.3333 38.8375 45.25 39.5344 43.925C39.7214 43.5647 39.818 43.1643 39.8156 42.7583V36.2593C39.8156 36.1567 39.7954 36.055 39.756 35.9601C39.7167 35.8653 39.6591 35.7791 39.5864 35.7066C39.5138 35.634 39.4275 35.5765 39.3326 35.5373C39.2377 35.4981 39.136 35.478 39.0333 35.4781Z" fill="#541E09" />
    <path d="M49.4656 28.7906L28.7968 21.8865C28.639 21.8333 28.4682 21.8333 28.3104 21.8865L5.02808 29.351C4.87262 29.4022 4.73713 29.5008 4.64067 29.6331C4.54421 29.7653 4.49164 29.9244 4.49038 30.0881C4.48911 30.2517 4.53921 30.4117 4.63361 30.5454C4.72802 30.679 4.86198 30.7798 5.01663 30.8333L26.7875 38.1917C26.868 38.2189 26.9524 38.233 27.0375 38.2333C27.1269 38.2332 27.2157 38.2177 27.3 38.1875L43.2802 32.4812V36.2312C42.7415 36.3939 42.2693 36.7252 41.933 37.1764C41.5968 37.6276 41.4143 38.1748 41.4125 38.7375V40.3125C41.4125 41.0109 41.6899 41.6807 42.1837 42.1745C42.6776 42.6684 43.3474 42.9458 44.0458 42.9458C44.7442 42.9458 45.414 42.6684 45.9078 42.1745C46.4017 41.6807 46.6791 41.0109 46.6791 40.3125V38.7354C46.6777 38.1778 46.499 37.6351 46.1689 37.1857C45.8388 36.7363 45.3743 36.4035 44.8427 36.2354V31.9229L49.4791 30.2677C49.6323 30.2131 49.7646 30.112 49.8576 29.9786C49.9506 29.8453 49.9996 29.6862 49.9979 29.5236C49.9962 29.361 49.9438 29.203 49.848 29.0716C49.7522 28.9402 49.6178 28.842 49.4635 28.7906H49.4656ZM45.1125 40.3125C45.1125 40.5965 44.9996 40.8689 44.7988 41.0697C44.598 41.2705 44.3256 41.3833 44.0416 41.3833C43.7576 41.3833 43.4853 41.2705 43.2844 41.0697C43.0836 40.8689 42.9708 40.5965 42.9708 40.3125V38.7354C42.9708 38.5948 42.9985 38.4555 43.0523 38.3256C43.1061 38.1957 43.185 38.0777 43.2844 37.9782C43.3839 37.8788 43.5019 37.7999 43.6318 37.7461C43.7618 37.6923 43.901 37.6646 44.0416 37.6646C44.1822 37.6646 44.3215 37.6923 44.4514 37.7461C44.5813 37.7999 44.6994 37.8788 44.7988 37.9782C44.8983 38.0777 44.9771 38.1957 45.0309 38.3256C45.0848 38.4555 45.1125 38.5948 45.1125 38.7354V40.3125ZM43.95 30.5833L27.3739 28.7948C27.2706 28.7812 27.1656 28.7883 27.0652 28.8159C26.9647 28.8434 26.8707 28.8908 26.7888 28.9552C26.7069 29.0196 26.6388 29.0998 26.5883 29.1909C26.5378 29.2821 26.5061 29.3824 26.495 29.486C26.4839 29.5896 26.4936 29.6943 26.5236 29.7941C26.5535 29.8939 26.6032 29.9867 26.6695 30.067C26.7359 30.1473 26.8177 30.2135 26.91 30.2618C27.0024 30.31 27.1034 30.3393 27.2072 30.3479L40.5708 31.7896L27.0291 36.6271L7.76454 30.1146L28.5437 23.4479L46.826 29.5552L43.95 30.5833Z" fill="#FF682D" />
    <path d="M28.5 22.5L6.5 30L26.5 37.5L49 30L28.5 22.5Z" fill="#FF682D" />
  </g>
  <defs>
    <clipPath id="clip0_606_1686">
      <rect width="50" height="50" fill="white" />
    </clipPath>
  </defs>
</svg>