<svg width="50" height="50" viewBox="0 0 50 50" fill="none" xmlns="http://www.w3.org/2000/svg">
  <path d="M39.5093 37.0438H38.5789V37.9742H39.5093V37.0438Z" fill="#FF682D" />
  <path d="M44.1962 20.2126H43.2659V21.1431H44.1962V20.2126Z" fill="#FF682D" />
  <path d="M34.1074 20.8618H33.177V21.7922H34.1074V20.8618Z" fill="#FF682D" />
  <path d="M44.6613 41.4396H43.731V42.37H44.6613V41.4396Z" fill="#FF682D" />
  <path d="M36.1805 42.3235H35.25V43.2539H36.1805V42.3235Z" fill="#FF682D" />
  <path d="M42.9547 10.7754C42.517 10.5374 42.245 10.0802 42.245 9.5823V8.18132C42.7765 8.09119 43.1832 7.62869 43.1832 7.07175V5.46052C43.1832 4.83933 42.6777 4.33386 42.0565 4.33386H34.2805C33.6593 4.33386 33.154 4.83933 33.154 5.46052V7.07175C33.154 7.62849 33.5602 8.09109 34.0916 8.18123V9.5823C34.0916 9.82624 34.0256 10.0661 33.9007 10.2758C33.7754 10.486 33.5959 10.659 33.382 10.7753C30.449 12.3689 28.6269 15.4326 28.6269 18.7708V19.7243H8.18491C6.76978 19.7243 5.58755 20.7852 5.43511 22.1921L4.48901 30.9169L5.45981 31.0221L6.40591 22.2973C6.50464 21.3873 7.26939 20.7009 8.18491 20.7009H29.563C30.4786 20.7009 31.2433 21.3872 31.342 22.2973L32.2874 31.0142L33.2582 30.909L32.719 25.9368H41.7007V34.0571H35.8312V35.0337H42.6773V22.729H32.371L32.3128 22.1921C32.1618 20.7987 31.0005 19.7453 29.6035 19.7253V18.7709C29.6035 18.3833 29.6315 18 29.6852 17.623C30.6638 17.7333 31.2212 18.1278 31.8498 18.5753C32.6166 19.1212 33.4857 19.74 35.1506 19.74C36.8156 19.74 37.6847 19.1212 38.4517 18.5753C39.1931 18.0474 39.8334 17.5916 41.1863 17.5916C42.5392 17.5916 43.1794 18.0474 43.9209 18.5753C44.6086 19.0649 45.3807 19.6116 46.7334 19.7195V42.7894C46.7334 43.8055 45.9072 44.6322 44.8917 44.6322H33.0147V45.6088H44.8917C46.4457 45.6088 47.71 44.344 47.71 42.7894V18.7719C47.71 15.4329 45.8879 12.3689 42.9547 10.7754ZM41.7007 23.7054V24.9601H32.6131L32.477 23.7054H41.7007ZM34.1306 5.46052C34.1306 5.37771 34.1979 5.31042 34.2806 5.31042H42.0566C42.1394 5.31042 42.2067 5.37771 42.2067 5.46052V7.07175C42.2067 7.15457 42.1394 7.22185 42.0566 7.22185H34.2806C34.1979 7.22185 34.1306 7.15457 34.1306 7.07175V5.46052ZM44.4874 17.7796C43.7205 17.2336 42.8513 16.6148 41.1863 16.6148C39.5213 16.6148 38.6522 17.2336 37.8852 17.7796C37.1438 18.3074 36.5036 18.7633 35.1506 18.7633C33.7978 18.7633 33.1575 18.3074 32.4161 17.7796C31.7768 17.3244 31.0647 16.82 29.8814 16.6643C30.4501 14.5434 31.8641 12.7113 33.8486 11.6331C34.2167 11.4328 34.5249 11.1362 34.7398 10.7755C34.8184 10.6433 34.8833 10.5043 34.9341 10.3604H39.5072V9.38386H35.0682V8.19851H41.2684V9.5823C41.2684 10.4385 41.7359 11.2243 42.4884 11.6334C45.0978 13.0511 46.7217 15.7725 46.7328 18.7411C45.7027 18.6443 45.1332 18.2393 44.4874 17.7796Z" fill="#541E09" />
  <path d="M10.3733 13.8903H9.39673V15.3598H10.3733V13.8903Z" fill="#FF682D" />
  <path d="M10.3733 16.4023H9.39673V17.8719H10.3733V16.4023Z" fill="#FF682D" />
  <path d="M9.36357 15.3928H7.89404V16.3693H9.36357V15.3928Z" fill="#FF682D" />
  <path d="M11.8758 15.3928H10.4062V16.3693H11.8758V15.3928Z" fill="#FF682D" />
  <path d="M26.7944 6.65155H25.8179V8.12108H26.7944V6.65155Z" fill="#FF682D" />
  <path d="M26.7944 9.1637H25.8179V10.6332H26.7944V9.1637Z" fill="#FF682D" />
  <path d="M25.7848 8.15411H24.3152V9.13068H25.7848V8.15411Z" fill="#FF682D" />
  <path d="M28.2968 8.15411H26.8274V9.13068H28.2968V8.15411Z" fill="#FF682D" />
  <path d="M26.6699 22.321H24.7612V23.2975H26.6699V22.321Z" fill="#FF682D" />
  <path d="M23.6209 22.321H11.1755V23.2975H23.6209V22.321Z" fill="#FF682D" />
  <path d="M45.3472 36.5085H44.3706V38.0389H45.3472V36.5085Z" fill="#FF682D" />
  <path d="M45.3472 22.6876H44.3706V35.1128H45.3472V22.6876Z" fill="#FF682D" />
  <path d="M33.5 5V7.5H42.5V5H33.5Z" fill="#FF682D" />
  <path d="M42.5 23H32.5L35 34.5H42.5V23Z" fill="#FF682D" />
  <path d="M7.5 20.5L5 31H33L31 20.5H7.5Z" fill="#FF682D" />
  <path d="M33.8785 39.1175C34.7562 39.1061 35.467 38.3894 35.467 37.5089C35.467 36.6284 34.7561 35.9118 33.8782 35.9004C33.8782 35.8977 33.8785 35.8948 33.8785 35.8921C33.8785 34.6231 33.3729 33.2038 32.5258 32.0958C31.579 30.857 30.3678 30.1749 29.1154 30.1749C28.7594 30.1749 28.4068 30.2319 28.0626 30.3394C27.1573 28.4859 25.589 27.3124 23.9674 27.3124C22.354 27.3124 20.7879 28.4801 19.8797 30.3234C19.5519 30.2264 19.2168 30.1749 18.8785 30.1749C18.5159 30.1749 18.1571 30.2339 17.8069 30.345C16.9019 28.4881 15.3326 27.3123 13.7088 27.3123C12.0994 27.3123 10.5354 28.4758 9.62734 30.3125C9.31074 30.2222 8.9875 30.1749 8.66143 30.1749C7.40879 30.1749 6.19756 30.857 5.25078 32.0958C4.404 33.2037 3.89844 34.6229 3.89844 35.8921C3.89844 35.8945 3.89863 35.897 3.89863 35.8994C3.01162 35.9 2.29004 36.6217 2.29004 37.5088C2.29004 38.3959 3.01123 39.1175 3.89805 39.1183V41.02C3.89805 43.5742 5.97598 45.6523 8.53027 45.6523C10.4496 45.6523 12.1 44.4787 12.8019 42.8116H14.6146C15.3131 44.4859 16.9669 45.666 18.8914 45.666C20.816 45.666 22.4697 44.4859 23.1684 42.8116H24.9745C25.595 44.2855 26.957 45.3727 28.5906 45.6051V45.6081C28.5971 45.6081 28.6036 45.6075 28.6101 45.6075C28.8182 45.6361 29.0303 45.6522 29.2461 45.6522C31.8003 45.6522 33.8784 43.5742 33.8784 41.0199L33.8785 39.1175ZM29.1155 31.1516C31.1548 31.1516 32.902 33.7582 32.902 35.8922C32.902 35.8945 32.9018 35.8971 32.9018 35.8995H25.3294C25.3294 35.8971 25.3292 35.8945 25.3292 35.8922C25.3292 33.7583 27.0764 31.1516 29.1155 31.1516ZM23.9675 28.2891C25.3554 28.2891 26.5307 29.4663 27.1725 30.7449C26.6413 31.0676 26.1444 31.5208 25.705 32.0959C24.8581 33.2038 24.3525 34.623 24.3525 35.8922C24.3525 35.8945 24.3527 35.8971 24.3528 35.8995H23.6413C23.6413 35.8971 23.6415 35.8945 23.6415 35.8922C23.6415 34.6232 23.1358 33.2039 22.2889 32.0959C21.8368 31.5044 21.3241 31.0416 20.7759 30.7177C21.4209 29.452 22.592 28.2891 23.9675 28.2891ZM18.8785 31.1516C20.9178 31.1516 22.6648 33.7582 22.6648 35.8922C22.6648 35.8945 22.6646 35.8971 22.6646 35.8995H15.0923C15.0923 35.8971 15.0921 35.8945 15.0921 35.8922C15.0922 33.7583 16.8395 31.1516 18.8785 31.1516ZM13.7089 28.2891C15.1006 28.2891 16.2778 29.4715 16.919 30.7549C16.394 31.0769 15.9029 31.5268 15.468 32.0959C14.6212 33.2038 14.1156 34.623 14.1156 35.8922C14.1156 35.8945 14.1158 35.8971 14.1158 35.8995H13.4243C13.4243 35.8971 13.4245 35.8945 13.4245 35.8922C13.4245 34.6232 12.9188 33.2039 12.0718 32.0959C11.6111 31.4933 11.0878 31.0236 10.5277 30.6989C11.1732 29.442 12.3403 28.2891 13.7089 28.2891ZM8.66152 31.1516C10.7007 31.1516 12.4479 33.7582 12.4479 35.8922C12.4479 35.8945 12.4477 35.8971 12.4477 35.8995H4.87539C4.87539 35.8971 4.8752 35.8945 4.8752 35.8922C4.8752 33.7583 6.62236 31.1516 8.66152 31.1516ZM4.8748 41.0202V39.1186H5.48672V41.004C5.48672 42.114 5.79971 43.1334 6.32012 43.9294C5.44248 43.261 4.8748 42.2059 4.8748 41.0202ZM13.0895 41.8353C13.1366 41.5705 13.1627 41.2984 13.1627 41.0202V40.7778C13.1627 40.4773 13.4072 40.2327 13.7142 40.2327C14.0147 40.2327 14.2593 40.4773 14.2593 40.7778V41.0339C14.2593 41.3073 14.2845 41.5747 14.3301 41.8353H13.0895ZM23.4529 41.8353C23.4986 41.5747 23.5238 41.3073 23.5238 41.0339V40.7778C23.5238 40.4773 23.7684 40.2327 24.0688 40.2327C24.3694 40.2327 24.614 40.4773 24.614 40.7778V41.0202C24.614 41.2984 24.64 41.5705 24.6872 41.8353H23.4529ZM31.264 41.004C31.264 42.9705 30.1049 44.5753 28.6653 44.6292C26.9248 44.3501 25.5906 42.8382 25.5906 41.0202V40.7778C25.5906 39.9388 24.908 39.2562 24.0689 39.2562C23.2299 39.2562 22.5474 39.9388 22.5474 40.7778V41.0339C22.5474 43.0497 20.9074 44.6897 18.8916 44.6897C16.8759 44.6897 15.2359 43.0497 15.2359 41.0339V40.7778C15.2359 39.9388 14.5533 39.2562 13.7078 39.2562C12.8688 39.2562 12.1862 39.9388 12.1862 40.7778V41.0202C12.1862 42.841 10.848 44.3548 9.10352 44.6307C7.64473 44.6065 6.46338 42.9894 6.46338 41.004V39.1186H31.2641L31.264 41.004ZM32.902 41.0202C32.902 42.2498 32.291 43.3388 31.3576 44.0018C31.9072 43.1955 32.2405 42.1484 32.2405 41.004V39.1186H32.902V41.0202ZM3.8998 38.142C3.55078 38.142 3.26689 37.858 3.26689 37.509C3.26689 37.1601 3.55078 36.8762 3.8998 36.8762H33.8574C34.2064 36.8762 34.4904 37.1601 34.4904 37.509C34.4904 37.858 34.2064 38.142 33.8574 38.142H3.8998ZM9.93994 22.757C9.93994 22.052 9.36641 21.4783 8.66133 21.4783C7.95625 21.4783 7.38262 22.052 7.38262 22.757C7.38262 23.4621 7.95625 24.0358 8.66133 24.0358C9.36641 24.0358 9.93994 23.4621 9.93994 22.757ZM8.35928 22.757C8.35928 22.5904 8.49482 22.4549 8.66143 22.4549C8.82793 22.4549 8.96348 22.5904 8.96348 22.757C8.96348 22.9236 8.82793 23.0592 8.66143 23.0592C8.49473 23.0592 8.35928 22.9236 8.35928 22.757ZM29.1153 24.0358C29.8205 24.0358 30.394 23.4621 30.394 22.757C30.394 22.052 29.8205 21.4783 29.1153 21.4783C28.4104 21.4783 27.8366 22.052 27.8366 22.757C27.8366 23.4621 28.4104 24.0358 29.1153 24.0358ZM29.1153 22.4549C29.2819 22.4549 29.4175 22.5904 29.4175 22.757C29.4175 22.9236 29.2819 23.0592 29.1153 23.0592C28.9488 23.0592 28.8132 22.9236 28.8132 22.757C28.8132 22.5904 28.9488 22.4549 29.1153 22.4549Z" fill="#541E09" />
</svg>