<svg width="24" height="24" viewBox="0 0 24 24" fill="none" xmlns="http://www.w3.org/2000/svg">
  <g clip-path="url(#clip0_606_1847)">
    <path d="M5.14289 12V7.49145C5.15628 6.60522 5.34441 5.73034 5.6965 4.91694C6.04859 4.10354 6.55772 3.36761 7.19472 2.75131C7.83172 2.13502 8.58406 1.65047 9.40864 1.32544C10.2332 1.0004 11.1138 0.841273 12 0.857162C12.8862 0.841273 13.7668 1.0004 14.5914 1.32544C15.416 1.65047 16.1684 2.13502 16.8054 2.75131C17.4423 3.36761 17.9515 4.10354 18.3036 4.91694C18.6557 5.73034 18.8438 6.60522 18.8572 7.49145V12M15.4286 21C16.3379 21 17.21 20.6388 17.853 19.9958C18.496 19.3528 18.8572 18.4808 18.8572 17.5714V13.7143M15.4286 21C15.4286 21.5683 15.2028 22.1134 14.801 22.5152C14.3991 22.9171 13.8541 23.1429 13.2857 23.1429H10.7143C10.146 23.1429 9.60096 22.9171 9.19909 22.5152C8.79723 22.1134 8.57146 21.5683 8.57146 21C8.57146 20.4317 8.79723 19.8867 9.19909 19.4848C9.60096 19.0829 10.146 18.8572 10.7143 18.8572H13.2857C13.8541 18.8572 14.3991 19.0829 14.801 19.4848C15.2028 19.8867 15.4286 20.4317 15.4286 21ZM2.57146 9.42859H4.28575C4.51308 9.42859 4.7311 9.5189 4.89184 9.67964C5.05259 9.84039 5.14289 10.0584 5.14289 10.2857V15.4286C5.14289 15.6559 5.05259 15.8739 4.89184 16.0347C4.7311 16.1954 4.51308 16.2857 4.28575 16.2857H2.57146C2.11681 16.2857 1.68077 16.1051 1.35928 15.7836C1.03779 15.4621 0.857178 15.0261 0.857178 14.5714V11.1429C0.857178 10.6882 1.03779 10.2522 1.35928 9.93069C1.68077 9.6092 2.11681 9.42859 2.57146 9.42859ZM21.4286 16.2857H19.7143C19.487 16.2857 19.269 16.1954 19.1082 16.0347C18.9475 15.8739 18.8572 15.6559 18.8572 15.4286V10.2857C18.8572 10.0584 18.9475 9.84039 19.1082 9.67964C19.269 9.5189 19.487 9.42859 19.7143 9.42859H21.4286C21.8833 9.42859 22.3193 9.6092 22.6408 9.93069C22.9623 10.2522 23.1429 10.6882 23.1429 11.1429V14.5714C23.1429 15.0261 22.9623 15.4621 22.6408 15.7836C22.3193 16.1051 21.8833 16.2857 21.4286 16.2857Z" stroke="#FF682D" stroke-width="1.5" stroke-linecap="round" stroke-linejoin="round" />
  </g>
  <defs>
    <clipPath id="clip0_606_1847">
      <rect width="24" height="24" fill="white" />
    </clipPath>
  </defs>
</svg>