<svg width="50" height="50" viewBox="0 0 50 50" fill="none" xmlns="http://www.w3.org/2000/svg">
  <g clip-path="url(#clip0_606_1634)">
    <path d="M49.4792 13.125H38.0209V0.520813H11.9792V13.125H0.520874V43.6458H6.97921V49.4791H43.0209V43.6458H49.4792V13.125ZM14.0625 2.60415H35.9375V41.5625H31.5625V33.2291H18.4375V41.5625H14.0625V2.60415ZM29.4792 41.5625H20.4167V35.3125H29.4792V41.5625ZM2.60421 41.5625V15.2083H11.9792V41.5625H2.60421ZM40.9375 47.3958H9.06254V43.6458H41.0417V47.3958H40.9375ZM47.3959 41.5625H38.0209V15.2083H47.3959V41.5625Z" fill="#541E09" />
    <path d="M23.9583 15.2083H26.0417V12.1875H29.0625V10.1041H26.0417V7.08331H23.9583V10.1041H20.9375V12.1875H23.9583V15.2083ZM6.25 19.2708H8.33333V22.5H6.25V19.2708ZM6.25 26.7708H8.33333V30H6.25V26.7708ZM6.25 34.2708H8.33333V37.5H6.25V34.2708ZM41.6667 19.2708H43.75V22.5H41.6667V19.2708ZM41.6667 26.7708H43.75V30H41.6667V26.7708ZM41.6667 34.2708H43.75V37.5H41.6667V34.2708ZM18.4375 19.2708H20.5208V22.5H18.4375V19.2708ZM18.4375 26.7708H20.5208V30H18.4375V26.7708ZM23.9583 19.2708H26.0417V22.5H23.9583V19.2708ZM23.9583 26.7708H26.0417V30H23.9583V26.7708ZM29.4792 19.2708H31.5625V22.5H29.4792V19.2708ZM29.4792 26.7708H31.5625V30H29.4792V26.7708Z" fill="#541E09" />
    <path d="M20 6.8H22V3.9H24.9V1.9H22V-1H20V1.9H17.1V3.9H20V6.8ZM3 10.7H5V13.8H3V10.7ZM3 17.9H5V21H3V17.9ZM3 25.1H5V28.2H3V25.1ZM37 10.7H39V13.8H37V10.7ZM37 17.9H39V21H37V17.9ZM37 25.1H39V28.2H37V25.1ZM14.7 10.7H16.7V13.8H14.7V10.7ZM14.7 17.9H16.7V21H14.7V17.9ZM20 10.7H22V13.8H20V10.7ZM20 17.9H22V21H20V17.9ZM25.3 10.7H27.3V13.8H25.3V10.7ZM25.3 17.9H27.3V21H25.3V17.9Z" fill="#FF682D" />
    <path d="M12.5 13H1.5V42H12.5V13Z" fill="#FF682D" />
    <path d="M49 14H37V43H49V14Z" fill="#FF682D" />
  </g>
  <defs>
    <clipPath id="clip0_606_1634">
      <rect width="50" height="50" fill="white" />
    </clipPath>
  </defs>
</svg>