<svg width="50" height="41" viewBox="0 0 50 41" fill="none" xmlns="http://www.w3.org/2000/svg">
  <path fill-rule="evenodd" clip-rule="evenodd" d="M29.6944 0V13.9922H23.5813V7.74219H20.5247V6.17969H14.4115V7.74219H11.355V12.4297H6.92295V3.05469H0.656982V40.5547H2.18527V25.7109H3.63714V28.8359H8.29841V40.625H9.82669V21.8047H13.5129V18.6797H16.9898V21.8047H20.5247V20.2422H18.518V17.1172H11.9846V20.2422H8.29841V27.2734H5.16542V24.1484H2.18527V4.61719H5.39466V13.9922H12.8833V9.30469H15.9398V7.74219H18.9964V9.30469H22.053V15.5547H31.2227V1.5625H37.3358V17.1172H43.449V6.17969H48.0338V23.3672H44.2131V20.2422H37.3358V21.8047H42.6848V24.9297H48.0338V40.5547H49.5621V4.61719H41.9207V15.5547H38.8641V0H29.6944ZM26.673 17.1141C26.6475 17.1138 26.622 17.1148 26.5966 17.1172C26.4188 17.1259 26.2497 17.1977 26.1182 17.3203L16.1874 26.6953C16.0731 26.8015 15.993 26.9407 15.9576 27.0944C15.9222 27.2481 15.9332 27.4092 15.9891 27.5564C16.045 27.7036 16.1433 27.83 16.2709 27.9189C16.3985 28.0079 16.5495 28.0552 16.704 28.0547H17.4681V39.7703C17.4681 39.9775 17.5486 40.1762 17.6919 40.3227C17.8352 40.4692 18.0296 40.5516 18.2323 40.5516H35.0434C35.2461 40.5516 35.4404 40.4692 35.5837 40.3227C35.727 40.1762 35.8075 39.9775 35.8075 39.7703V28.0547H36.5717C36.7264 28.0559 36.8778 28.009 37.0059 27.9203C37.134 27.8316 37.2327 27.7052 37.2891 27.5578C37.3454 27.4105 37.3566 27.2491 37.3213 27.0951C37.286 26.9411 37.2058 26.8017 37.0913 26.6953L35.8075 25.4859V21.0328C35.8088 20.9284 35.7895 20.8247 35.7509 20.728C35.7123 20.6313 35.6551 20.5435 35.5827 20.4698C35.5103 20.3961 35.4242 20.338 35.3295 20.2989C35.2348 20.2598 35.1333 20.2405 35.0312 20.2422C34.829 20.2455 34.6364 20.3305 34.4955 20.4787C34.3545 20.6269 34.2768 20.8261 34.2792 21.0328V24.0422L27.1574 17.3219C27.025 17.1962 26.8534 17.1226 26.673 17.1141ZM26.6378 18.9641L34.6155 26.4922H18.6602L26.6378 18.9641ZM18.9964 28.3906H34.2792V38.9891H29.6944V33.5203C29.6944 33.3131 29.6139 33.1144 29.4706 32.9679C29.3273 32.8214 29.1329 32.7391 28.9303 32.7391H24.3454C24.1427 32.7391 23.9484 32.8214 23.8051 32.9679C23.6618 33.1144 23.5813 33.3131 23.5813 33.5203V38.9891H18.9964V28.3906ZM25.1095 34.3016H28.1661V38.9891H25.1095V34.3016Z" fill="#541E09" />
  <path d="M20 27.5L29.5 18L39 27L38.5 40H21L20 27.5Z" fill="#FF682D" />
</svg>