<svg width="50" height="50" viewBox="0 0 50 50" fill="none" xmlns="http://www.w3.org/2000/svg">
  <circle cx="25" cy="25" r="25" transform="matrix(-1 0 0 1 50 0)" fill="#FF682D" />
  <path d="M30.1769 17.366C30.4124 17.6004 30.5446 17.9183 30.5446 18.2497C30.5446 18.5812 30.4124 18.8991 30.1769 19.1335L23.9609 25.321L30.1769 31.5085C30.4057 31.7442 30.5323 32.06 30.5294 32.3877C30.5265 32.7155 30.3945 33.029 30.1616 33.2608C29.9288 33.4925 29.6139 33.624 29.2846 33.6268C28.9553 33.6297 28.6381 33.5037 28.4013 33.276L21.2974 26.2047C21.062 25.9703 20.9297 25.6524 20.9297 25.321C20.9297 24.9895 21.062 24.6716 21.2974 24.4372L28.4013 17.366C28.6368 17.1316 28.9561 17 29.2891 17C29.6221 17 29.9415 17.1316 30.1769 17.366Z" fill="white" />
</svg>