<svg xmlns="http://www.w3.org/2000/svg" width="50" height="41" fill="none" viewBox="0 0 50 41">
  <path fill="#000" fill-rule="evenodd" d="M29.688 0v13.992h-6.25v-6.25h-3.125V6.18h-6.25v1.562h-3.126v4.688h-4.53V3.055H0v37.5h1.563V25.71h1.484v3.125h4.765v11.789h1.563v-18.82h3.769V18.68h3.554v3.125h3.614v-1.563h-2.051v-3.125h-6.68v3.125H7.813v7.031H4.608v-3.125H1.563V4.618h3.28v9.374H12.5V9.305h3.125V7.742h3.125v1.563h3.125v6.25h9.375V1.563h6.25v15.554h6.25V6.18h4.688v17.187H44.53v-3.125H37.5v1.563h5.469v3.125h5.468v15.625H50V4.617h-7.813v10.938h-3.124V0h-9.376Zm-3.09 17.114c-.026 0-.052 0-.078.003a.781.781 0 0 0-.489.203l-10.153 9.375a.782.782 0 0 0 .528 1.36h.782V39.77a.781.781 0 0 0 .78.782h17.188a.781.781 0 0 0 .782-.782V28.055h.78a.781.781 0 0 0 .532-1.36l-1.313-1.21v-4.452a.78.78 0 1 0-1.562 0v3.01l-7.281-6.721a.78.78 0 0 0-.496-.208Zm-.035 1.85 8.156 7.528H18.406l8.157-7.528Zm-7.813 9.427h15.625v10.598h-4.688V33.52a.781.781 0 0 0-.78-.78h-4.688a.781.781 0 0 0-.782.78v5.47H18.75v-10.6ZM25 34.3h3.125v4.688H25v-4.687Z" clip-rule="evenodd"/>
</svg>
